<svg width="94" height="40" viewBox="0 0 94 60" fill="none" xmlns="http://www.w3.org/2000/svg">
<path d="M17.6359 25.7127H13.1711V24.8198H21.4309V28.1683C21.4309 30.1924 21.163 31.9783 20.6273 33.5261C20.1213 35.0739 19.4367 36.3835 18.5735 37.4551C17.74 38.4969 16.7727 39.3005 15.6714 39.8661C14.5701 40.4018 13.439 40.6697 12.2781 40.6697C11.0578 40.6697 9.83739 40.3423 8.61702 39.6875C7.39665 39.0029 6.29534 37.9909 5.31309 36.6514C4.33083 35.2822 3.52717 33.5856 2.90211 31.5616C2.3068 29.5078 2.00915 27.1117 2.00915 24.3733C2.00915 21.6349 2.3068 19.2537 2.90211 17.2296C3.52717 15.1758 4.33083 13.4792 5.31309 12.1398C6.3251 10.7706 7.45618 9.75857 8.70632 9.10374C9.95645 8.41914 11.2215 8.07684 12.5014 8.07684C13.2157 8.07684 13.8557 8.1959 14.4212 8.43402C15.0165 8.67214 15.5225 8.92515 15.9393 9.19303C16.4155 9.52045 16.8322 9.89252 17.1894 10.3092C17.4275 9.86275 17.74 9.44604 18.127 9.05909C18.5437 8.67214 18.9753 8.41914 19.4218 8.30008H20.0915C20.032 8.74656 19.9873 9.19303 19.9576 9.63951C19.9278 10.0562 19.898 10.5027 19.8683 10.9789C19.8683 11.4254 19.8683 11.8719 19.8683 12.3184C19.8683 12.8244 19.8683 13.3304 19.8683 13.8364C19.898 14.3126 19.9278 14.7591 19.9576 15.1758C19.9873 15.6521 20.032 16.1134 20.0915 16.5599H19.4218C18.7372 14.0894 17.8145 12.2142 16.6536 10.9343C15.5225 9.62463 14.2873 8.96979 12.9479 8.96979C12.1144 8.96979 11.2959 9.20792 10.4922 9.68416C9.68857 10.1604 8.9742 10.9938 8.34913 12.1844C7.72407 13.3453 7.21806 14.9228 6.83111 16.9171C6.44416 18.8816 6.25069 21.367 6.25069 24.3733C6.25069 27.4391 6.42928 29.984 6.78646 32.008C7.17341 34.0023 7.66453 35.5948 8.25984 36.7854C8.85514 37.976 9.49509 38.8094 10.1797 39.2856C10.8941 39.7619 11.5935 40 12.2781 40C12.933 40 13.5878 39.8214 14.2426 39.4642C14.8975 39.0773 15.463 38.4373 15.9393 37.5444C16.4453 36.6217 16.8471 35.4013 17.1447 33.8833C17.4722 32.3652 17.6359 30.4603 17.6359 28.1683V25.7127ZM45.7814 8.74656C47.7459 8.74656 49.5467 9.10374 51.1838 9.8181C52.8506 10.5325 54.2943 11.5594 55.5146 12.8988C56.735 14.2382 57.6875 15.8753 58.3721 17.8101C59.0567 19.7448 59.399 21.9325 59.399 24.3733C59.399 26.8438 59.0567 29.0464 58.3721 30.9811C57.6875 32.9159 56.735 34.553 55.5146 35.8924C54.2943 37.2318 52.8506 38.2587 51.1838 38.9731C49.5467 39.6577 47.7459 40 45.7814 40H37.9681V39.5535L40.6469 38.8838V9.86275L37.9681 9.19303V8.74656H45.7814ZM44.442 9.63951V39.107H45.7814C47.0613 39.107 48.2668 38.8392 49.3979 38.3034C50.5587 37.7378 51.5559 36.8598 52.3893 35.6692C53.2525 34.4786 53.9222 32.9605 54.3984 31.1151C54.9044 29.2399 55.1574 26.9926 55.1574 24.3733C55.1574 21.7539 54.9044 19.5216 54.3984 17.6761C53.9222 15.8009 53.2525 14.268 52.3893 13.0774C51.5559 11.8868 50.5587 11.0236 49.3979 10.4878C48.2668 9.92228 47.0613 9.63951 45.7814 9.63951H44.442ZM77.9191 14.5508C77.9191 15.7711 78.2763 16.8278 78.9906 17.7208C79.705 18.584 80.5979 19.3876 81.6695 20.1317C82.741 20.8759 83.9019 21.6051 85.152 22.3195C86.4319 23.0338 87.6077 23.8524 88.6792 24.7751C89.7507 25.6681 90.6437 26.7247 91.3581 27.9451C92.0724 29.1655 92.4296 30.6537 92.4296 32.4099C92.4296 33.5707 92.2213 34.6571 91.8045 35.6692C91.3878 36.6812 90.7925 37.5593 90.0186 38.3034C89.2745 39.0475 88.3815 39.6279 87.3398 40.0446C86.298 40.4614 85.1669 40.6697 83.9465 40.6697C82.8155 40.6697 81.8481 40.5507 81.0444 40.3125C80.2408 40.1042 79.5711 39.8512 79.0353 39.5535C78.4102 39.2261 77.8893 38.854 77.4726 38.4373C77.2345 38.8838 76.9071 39.3005 76.4904 39.6875C76.1034 40.0744 75.6867 40.3274 75.2402 40.4465H74.5705C74.6003 40.0298 74.63 39.5833 74.6598 39.107C74.6896 38.7201 74.7193 38.2885 74.7491 37.8123C74.7789 37.336 74.7937 36.8747 74.7937 36.4282C74.7937 35.9222 74.7789 35.431 74.7491 34.9548C74.7193 34.4488 74.6896 33.9874 74.6598 33.5707C74.63 33.0945 74.6003 32.6331 74.5705 32.1866H75.2402C75.9248 34.6571 76.9071 36.5472 78.187 37.8569C79.4966 39.1368 81.2677 39.7768 83.5001 39.7768C85.286 39.7768 86.7296 39.2112 87.8309 38.0801C88.962 36.9193 89.5275 35.3269 89.5275 33.3028C89.5275 32.0825 89.1703 31.0407 88.456 30.1775C87.7416 29.2845 86.8486 28.466 85.7771 27.7219C84.7055 26.9777 83.5298 26.2485 82.2499 25.5341C80.9998 24.8198 79.8389 24.0161 78.7674 23.1231C77.6958 22.2004 76.8029 21.1289 76.0885 19.9085C75.3742 18.6881 75.017 17.1999 75.017 15.4437C75.017 14.4317 75.2105 13.4792 75.5974 12.5863C75.9843 11.6933 76.5201 10.9194 77.2047 10.2646C77.8893 9.57998 78.693 9.04421 79.6157 8.65726C80.5384 8.27031 81.5356 8.07684 82.6071 8.07684C83.5001 8.07684 84.2888 8.1959 84.9734 8.43402C85.658 8.67214 86.2385 8.92515 86.7147 9.19303C87.2505 9.52045 87.7416 9.89252 88.1881 10.3092C88.4262 9.86275 88.7387 9.44604 89.1257 9.05909C89.5424 8.67214 89.974 8.41914 90.4205 8.30008H91.0902C91.0306 8.74656 90.986 9.19303 90.9562 9.63951C90.9265 10.0562 90.8967 10.5027 90.8669 10.9789C90.8669 11.4254 90.8669 11.8719 90.8669 12.3184C90.8669 12.8244 90.8669 13.3304 90.8669 13.8364C90.8967 14.3126 90.9265 14.7591 90.9562 15.1758C90.986 15.6521 91.0306 16.1134 91.0902 16.5599H90.4205C89.7359 14.0894 88.7834 12.2142 87.563 10.9343C86.3426 9.62463 84.8395 8.96979 83.0536 8.96979C81.5951 8.96979 80.3747 9.4758 79.3925 10.4878C78.4102 11.4998 77.9191 12.8542 77.9191 14.5508Z" fill="#BA3E3E"/>
<path d="M3.00914 56.0564L2.93114 55.5494C3.3991 55.4628 3.69374 55.3718 3.81506 55.2765C3.94504 55.1811 4.01004 55.0035 4.01004 54.7435V48.3612C4.01004 48.0925 3.95804 47.9105 3.85405 47.8152C3.75873 47.7199 3.48142 47.6332 3.02214 47.5552L3.10013 47.0483H5.82986L8.32561 53.8856C8.36894 54.0243 8.39927 54.1326 8.4166 54.2106H8.54659C8.55526 54.1153 8.57692 54.0286 8.61158 53.9506L11.1463 47.0483H13.4991L13.5511 47.5552L13.0052 47.7112C12.8405 47.7632 12.7582 47.8629 12.7582 48.0102V55.0555C12.7582 55.2461 12.8448 55.3588 13.0182 55.3935L13.8241 55.5494L13.7721 56.0564H10.5614L10.4834 55.5494C10.908 55.4715 11.181 55.3891 11.3023 55.3025C11.4323 55.2071 11.4973 55.0555 11.4973 54.8475V48.9071C11.4973 48.7078 11.5103 48.5431 11.5363 48.4131H11.4323L8.68958 55.7964H7.75367L4.98494 48.3872H4.88095V54.7565C4.88095 54.9645 4.91995 55.1205 4.99794 55.2245C5.0846 55.3285 5.23625 55.3978 5.4529 55.4325L6.08983 55.5494L6.03784 56.0564H3.00914ZM14.8651 54.4576C14.8651 53.8076 15.1424 53.3223 15.697 53.0017C16.2516 52.6811 17.1529 52.5164 18.4007 52.5077V52.0918C18.4007 50.9652 17.9934 50.402 17.1789 50.402C16.7889 50.402 16.5419 50.4583 16.4379 50.5709C16.3426 50.6836 16.2386 51.0519 16.126 51.6758L15.424 51.5978C15.3547 51.3292 15.32 51.0519 15.32 50.7659C15.32 50.4713 15.3244 50.2806 15.333 50.194C15.8443 49.8733 16.5159 49.713 17.3478 49.713C18.1798 49.713 18.756 49.8733 19.0767 50.194C19.406 50.5146 19.5706 51.0432 19.5706 51.7798V54.7695C19.5706 54.9948 19.6226 55.1552 19.7266 55.2505C19.8393 55.3371 20.1166 55.4238 20.5585 55.5105L20.4805 55.9264L18.9207 56.0954C18.834 56.0954 18.743 56.0131 18.6477 55.8484C18.5524 55.6838 18.5047 55.5321 18.5047 55.3935C18.5047 55.2461 18.5091 55.1378 18.5177 55.0685L18.4137 55.0295L18.2578 55.2635C17.8505 55.8701 17.2915 56.1734 16.5809 56.1734C16.0956 56.1734 15.6883 56.0217 15.359 55.7184C15.0297 55.4151 14.8651 54.9948 14.8651 54.4576ZM16.126 54.3406C16.126 54.6525 16.2083 54.8908 16.3729 55.0555C16.5376 55.2115 16.7716 55.2895 17.0749 55.2895C17.3782 55.2895 17.7205 55.1422 18.1018 54.8475C18.3011 54.6915 18.4007 54.5269 18.4007 54.3536V53.0797C17.6208 53.097 17.0445 53.201 16.6719 53.3917C16.3079 53.5823 16.126 53.8986 16.126 54.3406ZM21.4908 56.0564L21.4128 55.5494C21.8721 55.4715 22.1537 55.3848 22.2577 55.2895C22.3617 55.1941 22.4137 55.0338 22.4137 54.8085V51.0649C22.4137 50.8396 22.353 50.6793 22.2317 50.5839C22.119 50.4799 21.8201 50.3933 21.3348 50.324L21.4128 49.908L23.1806 49.739C23.2413 49.739 23.3063 49.8257 23.3756 49.999C23.4449 50.1723 23.4796 50.3543 23.4796 50.5449C23.4796 50.7269 23.4623 50.9392 23.4276 51.1819L23.5316 51.2209L23.7006 50.8439C23.8565 50.4973 24.0905 50.2243 24.4025 50.025C24.7231 49.817 25.0438 49.713 25.3644 49.713C25.6937 49.713 25.997 49.7823 26.2743 49.921C26.2743 50.6316 26.2093 51.3422 26.0793 52.0528L25.4424 52.1178C25.3731 51.3899 25.3037 50.9782 25.2344 50.8829C25.1651 50.7789 25.0481 50.7269 24.8834 50.7269C24.7275 50.7269 24.5411 50.8006 24.3245 50.9479C24.1079 51.0866 23.9302 51.2382 23.7916 51.4029C23.6529 51.5588 23.5836 51.8188 23.5836 52.1828V55.1205C23.5836 55.2331 23.6052 55.3068 23.6486 55.3415C23.7006 55.3675 23.7656 55.3848 23.8435 55.3935L25.0264 55.5494L24.9744 56.0564H21.4908ZM27.1016 56.0564L27.0236 55.5494C27.4828 55.4715 27.7645 55.3848 27.8685 55.2895C27.9725 55.1941 28.0245 55.0338 28.0245 54.8085V51.0649C28.0245 50.8396 27.9638 50.6793 27.8425 50.5839C27.7298 50.4799 27.4309 50.3933 26.9456 50.324L27.0236 49.908L28.7914 49.739C28.852 49.739 28.917 49.8257 28.9864 49.999C29.0557 50.1723 29.0904 50.3543 29.0904 50.5449C29.0904 50.7269 29.073 50.9392 29.0384 51.1819L29.1424 51.2209L29.3113 50.8439C29.4673 50.4973 29.7013 50.2243 30.0133 50.025C30.3339 49.817 30.6545 49.713 30.9752 49.713C31.3045 49.713 31.6078 49.7823 31.8851 49.921C31.8851 50.6316 31.8201 51.3422 31.6901 52.0528L31.0532 52.1178C30.9838 51.3899 30.9145 50.9782 30.8452 50.8829C30.7759 50.7789 30.6589 50.7269 30.4942 50.7269C30.3382 50.7269 30.1519 50.8006 29.9353 50.9479C29.7186 51.0866 29.541 51.2382 29.4023 51.4029C29.2637 51.5588 29.1943 51.8188 29.1943 52.1828V55.1205C29.1943 55.2331 29.216 55.3068 29.2593 55.3415C29.3113 55.3675 29.3763 55.3848 29.4543 55.3935L30.6372 55.5494L30.5852 56.0564H27.1016ZM32.8033 56.0564L32.7253 55.5494C33.15 55.4628 33.4056 55.3761 33.4923 55.2895C33.5876 55.1941 33.6352 55.0338 33.6352 54.8085V51.0779C33.6352 50.8959 33.5659 50.7659 33.4273 50.6879C33.2886 50.6013 33.0286 50.5189 32.6473 50.4409L32.7253 50.025C33.6526 49.9037 34.2982 49.843 34.6621 49.843L34.8051 49.973V55.1205C34.8051 55.2245 34.8268 55.2938 34.8701 55.3285C34.9221 55.3545 34.9871 55.3761 35.0651 55.3935L35.702 55.5494L35.65 56.0564H32.8033ZM34.8181 47.5292C34.8181 47.7459 34.7488 47.9279 34.6101 48.0752C34.4802 48.2225 34.3025 48.2962 34.0772 48.2962C33.8605 48.2962 33.6786 48.2312 33.5312 48.1012C33.3926 47.9712 33.3233 47.7935 33.3233 47.5682C33.3233 47.3343 33.3883 47.1479 33.5182 47.0093C33.6569 46.8706 33.8432 46.8013 34.0772 46.8013C34.5711 46.8013 34.8181 47.044 34.8181 47.5292ZM36.7623 54.4576C36.7623 53.8076 37.0396 53.3223 37.5943 53.0017C38.1489 52.6811 39.0501 52.5164 40.298 52.5077V52.0918C40.298 50.9652 39.8907 50.402 39.0761 50.402C38.6862 50.402 38.4392 50.4583 38.3352 50.5709C38.2399 50.6836 38.1359 51.0519 38.0232 51.6758L37.3213 51.5978C37.252 51.3292 37.2173 51.0519 37.2173 50.7659C37.2173 50.4713 37.2216 50.2806 37.2303 50.194C37.7416 49.8733 38.4132 49.713 39.2451 49.713C40.077 49.713 40.6533 49.8733 40.9739 50.194C41.3032 50.5146 41.4679 51.0432 41.4679 51.7798V54.7695C41.4679 54.9948 41.5199 55.1552 41.6239 55.2505C41.7365 55.3371 42.0138 55.4238 42.4558 55.5105L42.3778 55.9264L40.8179 56.0954C40.7313 56.0954 40.6403 56.0131 40.545 55.8484C40.4496 55.6838 40.402 55.5321 40.402 55.3935C40.402 55.2461 40.4063 55.1378 40.415 55.0685L40.311 55.0295L40.155 55.2635C39.7477 55.8701 39.1888 56.1734 38.4782 56.1734C37.9929 56.1734 37.5856 56.0217 37.2563 55.7184C36.927 55.4151 36.7623 54.9948 36.7623 54.4576ZM38.0232 54.3406C38.0232 54.6525 38.1055 54.8908 38.2702 55.0555C38.4348 55.2115 38.6688 55.2895 38.9721 55.2895C39.2754 55.2895 39.6177 55.1422 39.999 54.8475C40.1983 54.6915 40.298 54.5269 40.298 54.3536V53.0797C39.5181 53.097 38.9418 53.201 38.5692 53.3917C38.2052 53.5823 38.0232 53.8986 38.0232 54.3406ZM44.9479 56.3684C44.7052 56.637 44.5839 56.9273 44.5839 57.2393C44.5839 57.5512 44.7139 57.7982 44.9739 57.9802C45.2339 58.1622 45.6758 58.2532 46.2997 58.2532C46.9324 58.2532 47.422 58.1232 47.7686 57.8632C48.1152 57.6032 48.2886 57.3433 48.2886 57.0833C48.2886 56.8233 48.1456 56.663 47.8596 56.6023C47.5736 56.5503 47.1187 56.52 46.4947 56.5114C45.8795 56.5027 45.3638 56.455 44.9479 56.3684ZM43.83 55.2635C43.83 54.9168 43.96 54.5832 44.22 54.2626C44.4019 54.0373 44.6099 53.8336 44.8439 53.6516C44.7139 53.591 44.5926 53.5173 44.4799 53.4307C44.0466 53.084 43.83 52.5641 43.83 51.8708C43.83 51.1689 44.0683 50.6359 44.5449 50.272C45.0215 49.8993 45.6151 49.713 46.3257 49.713C46.9583 49.713 47.4826 49.8473 47.8986 50.116C48.4619 49.8473 49.0078 49.7044 49.5364 49.687C49.6231 49.8343 49.6664 50.012 49.6664 50.22C49.6664 50.4193 49.6534 50.5579 49.6274 50.6359C49.3328 50.5666 49.0251 50.5319 48.7045 50.5319C48.5745 50.5319 48.4575 50.5319 48.3535 50.5319C48.5962 50.8612 48.7175 51.2859 48.7175 51.8058C48.7175 52.4991 48.4792 53.032 48.0026 53.4047C47.526 53.7686 46.9324 53.9506 46.2218 53.9506C45.8231 53.9506 45.4722 53.8986 45.1689 53.7946C44.9089 54.1066 44.7789 54.4056 44.7789 54.6915C44.7789 54.9515 44.9262 55.1075 45.2209 55.1595C45.4808 55.2028 45.7711 55.2245 46.0918 55.2245C46.4211 55.2245 46.6724 55.2288 46.8457 55.2375C47.0277 55.2375 47.2573 55.2505 47.5346 55.2765C47.8119 55.3025 48.0286 55.3458 48.1846 55.4065C48.3492 55.4671 48.5182 55.5451 48.6915 55.6404C49.0121 55.8224 49.1725 56.1431 49.1725 56.6023C49.1725 57.2263 48.8605 57.7636 48.2366 58.2142C47.6126 58.6735 46.772 58.9031 45.7148 58.9031C44.2936 58.9031 43.583 58.4958 43.583 57.6812C43.583 57.3866 43.6653 57.131 43.83 56.9143C44.0033 56.7063 44.2503 56.4854 44.5709 56.2514C44.077 56.0954 43.83 55.7661 43.83 55.2635ZM46.3127 53.3137C47.1187 53.3137 47.5216 52.8197 47.5216 51.8318C47.5216 50.8439 47.0927 50.35 46.2348 50.35C45.4288 50.35 45.0259 50.8439 45.0259 51.8318C45.0259 52.8197 45.4548 53.3137 46.3127 53.3137ZM53.2633 56.1734C52.3881 56.1734 51.7078 55.8744 51.2225 55.2765C50.7459 54.6785 50.5076 53.9246 50.5076 53.0147C50.5076 52.0961 50.7849 51.3162 51.3395 50.6749C51.8941 50.0337 52.6264 49.713 53.5363 49.713C55.0095 49.713 55.7807 50.6186 55.85 52.4298L55.5121 52.6767L51.7425 52.8847C51.7425 54.4879 52.4271 55.2895 53.7962 55.2895C54.3942 55.2895 54.9791 55.1422 55.5511 54.8475L55.824 55.2765C55.5381 55.5105 55.1654 55.7184 54.7062 55.9004C54.2469 56.0824 53.7659 56.1734 53.2633 56.1734ZM51.7814 52.2868L54.4722 52.0528C54.5588 52.0441 54.6022 51.9618 54.6022 51.8058C54.6022 51.4245 54.4982 51.0952 54.2902 50.8179C54.0909 50.5406 53.7486 50.402 53.2633 50.402C52.778 50.402 52.4227 50.5666 52.1974 50.8959C51.9808 51.2165 51.8421 51.6802 51.7814 52.2868ZM60.1092 56.0564L60.0312 55.5494C60.4905 55.4715 60.7678 55.3848 60.8631 55.2895C60.9671 55.1941 61.0191 55.0122 61.0191 54.7435V48.3612C61.0191 48.0925 60.9671 47.9105 60.8631 47.8152C60.7678 47.7199 60.4905 47.6332 60.0312 47.5552L60.1092 47.0483H63.2938L63.3458 47.5552L62.5399 47.7112C62.3666 47.7459 62.2799 47.8585 62.2799 48.0492V55.3935L63.4368 55.3805C64.3987 55.3631 64.962 55.3328 65.1267 55.2895C65.2653 55.2461 65.508 54.5789 65.8546 53.2877L66.5695 53.3527C66.5782 53.5 66.5825 53.8033 66.5825 54.2626C66.5825 54.7132 66.5349 55.3111 66.4395 56.0564H60.1092ZM67.3185 56.0564L67.2405 55.5494C67.6651 55.4628 67.9207 55.3761 68.0074 55.2895C68.1027 55.1941 68.1504 55.0338 68.1504 54.8085V51.0779C68.1504 50.8959 68.0811 50.7659 67.9424 50.6879C67.8038 50.6013 67.5438 50.5189 67.1625 50.4409L67.2405 50.025C68.1677 49.9037 68.8133 49.843 69.1773 49.843L69.3203 49.973V55.1205C69.3203 55.2245 69.3419 55.2938 69.3853 55.3285C69.4373 55.3545 69.5023 55.3761 69.5803 55.3935L70.2172 55.5494L70.1652 56.0564H67.3185ZM69.3333 47.5292C69.3333 47.7459 69.2639 47.9279 69.1253 48.0752C68.9953 48.2225 68.8177 48.2962 68.5923 48.2962C68.3757 48.2962 68.1937 48.2312 68.0464 48.1012C67.9077 47.9712 67.8384 47.7935 67.8384 47.5682C67.8384 47.3343 67.9034 47.1479 68.0334 47.0093C68.1721 46.8706 68.3584 46.8013 68.5923 46.8013C69.0863 46.8013 69.3333 47.044 69.3333 47.5292ZM71.3425 56.0564L71.2645 55.5494C71.6891 55.4628 71.9448 55.3761 72.0314 55.2895C72.1267 55.1941 72.1744 55.0338 72.1744 54.8085V51.0649C72.1744 50.8396 72.1181 50.6836 72.0054 50.5969C71.9014 50.5016 71.6285 50.4106 71.1865 50.324L71.2645 49.908L72.9413 49.739C73.002 49.739 73.0627 49.8603 73.1233 50.103C73.1926 50.3456 73.2273 50.5579 73.2273 50.7399V50.8179L73.3313 50.8569L73.4873 50.6749C74.0332 50.0337 74.7005 49.713 75.4891 49.713C76.0437 49.713 76.4813 49.882 76.802 50.22C77.1226 50.5493 77.2829 51.0129 77.2829 51.6108V55.1205C77.2829 55.2245 77.3046 55.2938 77.3479 55.3285C77.3999 55.3545 77.4649 55.3761 77.5429 55.3935L78.1798 55.5494L78.1278 56.0564H75.3461L75.2681 55.5494C75.6581 55.4715 75.8964 55.3848 75.983 55.2895C76.0697 55.1941 76.113 55.0338 76.113 54.8085V52.0008C76.113 51.5935 76.0394 51.2685 75.892 51.0259C75.7447 50.7746 75.4544 50.6489 75.0211 50.6489C74.5965 50.6489 74.1329 50.8179 73.6303 51.1559C73.5523 51.2079 73.4959 51.2469 73.4613 51.2729C73.3833 51.3595 73.3443 51.5198 73.3443 51.7538V55.1075C73.3443 55.2028 73.3573 55.2678 73.3833 55.3025C73.418 55.3371 73.4916 55.3675 73.6043 55.3935L74.1762 55.5494L74.1242 56.0564H71.3425ZM78.9949 56.0564L78.9169 55.5494C79.3415 55.4628 79.5972 55.3761 79.6838 55.2895C79.7791 55.1941 79.8268 55.0338 79.8268 54.8085V47.2563C79.8268 47.0743 79.7575 46.9443 79.6188 46.8663C79.4802 46.7796 79.2202 46.6973 78.8389 46.6193L78.9169 46.2034C79.8441 46.082 80.4897 46.0214 80.8537 46.0214L80.9967 46.1514V53.0537L83.2325 50.9609C83.3018 50.8829 83.3365 50.8092 83.3365 50.7399C83.3365 50.6099 83.0375 50.5016 82.4395 50.415L82.5175 49.908H85.1043L85.1563 50.415C84.7576 50.4756 84.5193 50.5449 84.4413 50.6229L82.6605 52.3258L84.5453 55.0165C84.684 55.1898 84.8356 55.3155 85.0003 55.3935C85.1736 55.4715 85.4206 55.5234 85.7412 55.5494L85.6632 56.0564H83.8564L81.8416 53.1187L80.9967 53.9246V55.1205C80.9967 55.2245 81.0183 55.2938 81.0617 55.3285C81.1137 55.3545 81.1787 55.3761 81.2567 55.3935L81.8286 55.5494L81.7766 56.0564H78.9949ZM88.7873 50.402C88.0247 50.402 87.6434 50.6619 87.6434 51.1819C87.6434 51.3899 87.6954 51.5458 87.7994 51.6498C87.9034 51.7452 87.977 51.8188 88.0204 51.8708C88.0723 51.9141 88.1677 51.9705 88.3063 52.0398C88.445 52.1091 88.5403 52.1611 88.5923 52.1958C88.653 52.2218 88.7699 52.2694 88.9433 52.3388C89.6712 52.6421 90.1825 52.928 90.4771 53.1967C90.7717 53.4653 90.9191 53.8466 90.9191 54.3406C90.9191 54.8345 90.6981 55.2635 90.2561 55.6274C89.8228 55.9914 89.2249 56.1734 88.4623 56.1734C88.1243 56.1734 87.7734 56.1387 87.4094 56.0694C87.0454 56.0001 86.7811 55.9307 86.6165 55.8614C86.5992 55.7488 86.5905 55.5191 86.5905 55.1725C86.5905 54.8259 86.6295 54.4489 86.7075 54.0416L87.3834 53.9896C87.4441 54.5442 87.4874 54.8865 87.5134 55.0165C87.5481 55.1378 87.5957 55.2158 87.6564 55.2505C87.9337 55.4065 88.2977 55.4845 88.7483 55.4845C89.4502 55.4845 89.8012 55.2028 89.8012 54.6395C89.8012 54.3709 89.6972 54.1499 89.4892 53.9766C89.2552 53.786 88.9866 53.6256 88.6833 53.4956C87.886 53.1663 87.3401 52.8674 87.0454 52.5987C86.7595 52.3214 86.6165 51.9401 86.6165 51.4548C86.6165 50.9696 86.8375 50.5579 87.2794 50.22C87.7214 49.882 88.2543 49.713 88.8783 49.713C89.5022 49.713 90.0742 49.8213 90.5941 50.038C90.6028 50.1073 90.6071 50.3023 90.6071 50.6229C90.6071 50.9436 90.5508 51.2815 90.4381 51.6368L89.8402 51.7018C89.7795 51.0259 89.6799 50.6403 89.5412 50.5449C89.4112 50.4496 89.1599 50.402 88.7873 50.402Z" fill="#BA3E3E"/>
</svg>
