<svg xmlns="http://www.w3.org/2000/svg" xmlns:xlink="http://www.w3.org/1999/xlink" width="90" zoomAndPan="magnify" viewBox="0 0 67.5 30.000001" height="40" preserveAspectRatio="xMidYMid meet" version="1.0"><defs><filter x="0%" y="0%" width="100%" height="100%" id="42c77d84f5"><feColorMatrix values="0 0 0 0 1 0 0 0 0 1 0 0 0 0 1 0 0 0 1 0" color-interpolation-filters="sRGB"/></filter><g/><mask id="435ca4ba37"><g filter="url(#42c77d84f5)"><rect x="-6.75" width="81" fill="#000000" y="-3" height="36.000001" fill-opacity="0.48"/></g></mask><clipPath id="49f0eeac68"><path d="M 1.007812 0.976562 L 23.058594 0.976562 L 23.058594 5.277344 L 1.007812 5.277344 Z M 1.007812 0.976562 " clip-rule="nonzero"/></clipPath><clipPath id="0468dbc03f"><rect x="0" width="24" y="0" height="6"/></clipPath></defs><g fill="#af4604" fill-opacity="1"><g transform="translate(19.163128, 20.358435)"><g><path d="M 4.25 -12.59375 C 5.332031 -12.59375 6.179688 -12.289062 6.796875 -11.6875 C 7.421875 -11.082031 7.734375 -10.238281 7.734375 -9.15625 L 7.734375 -8.453125 L 6.328125 -8.453125 L 6.328125 -10.03125 C 6.328125 -10.738281 6.128906 -11.28125 5.734375 -11.65625 C 5.347656 -12.039062 4.851562 -12.234375 4.25 -12.234375 C 3.65625 -12.234375 3.164062 -12.039062 2.78125 -11.65625 C 2.394531 -11.28125 2.203125 -10.738281 2.203125 -10.03125 L 2.203125 -2.265625 C 2.203125 -1.566406 2.394531 -1.023438 2.78125 -0.640625 C 3.164062 -0.265625 3.65625 -0.078125 4.25 -0.078125 C 4.851562 -0.078125 5.347656 -0.265625 5.734375 -0.640625 C 6.128906 -1.023438 6.328125 -1.566406 6.328125 -2.265625 L 6.328125 -5.875 L 3.9375 -5.875 L 3.9375 -6.21875 L 7.734375 -6.21875 L 7.734375 -3.140625 C 7.734375 -2.078125 7.421875 -1.238281 6.796875 -0.625 C 6.179688 -0.0195312 5.332031 0.28125 4.25 0.28125 C 3.1875 0.28125 2.34375 -0.0195312 1.71875 -0.625 C 1.101562 -1.238281 0.796875 -2.078125 0.796875 -3.140625 L 0.796875 -9.15625 C 0.796875 -10.238281 1.101562 -11.082031 1.71875 -11.6875 C 2.34375 -12.289062 3.1875 -12.59375 4.25 -12.59375 Z M 4.25 -12.59375 "/></g></g></g><g fill="#af4604" fill-opacity="1"><g transform="translate(27.638217, 20.358435)"><g><path d="M 4.296875 -12.3125 C 5.472656 -12.3125 6.351562 -12 6.9375 -11.375 C 7.519531 -10.757812 7.8125 -9.898438 7.8125 -8.796875 L 7.8125 -3.515625 C 7.8125 -2.410156 7.519531 -1.546875 6.9375 -0.921875 C 6.351562 -0.304688 5.472656 0 4.296875 0 L 0.171875 0 L 0.171875 -0.359375 L 0.859375 -0.359375 L 0.859375 -11.953125 L 0.171875 -11.953125 L 0.171875 -12.3125 Z M 2.265625 -11.953125 L 2.265625 -0.359375 L 3.890625 -0.359375 C 5.566406 -0.359375 6.40625 -1.1875 6.40625 -2.84375 L 6.40625 -9.453125 C 6.40625 -11.117188 5.566406 -11.953125 3.890625 -11.953125 Z M 2.265625 -11.953125 "/></g></g></g><g fill="#af4604" fill-opacity="1"><g transform="translate(36.18364, 20.358435)"><g><path d="M 4.25 -12.59375 C 5.3125 -12.59375 6.15625 -12.296875 6.78125 -11.703125 C 7.414062 -11.109375 7.734375 -10.289062 7.734375 -9.25 L 7.734375 -8.453125 L 6.328125 -8.453125 L 6.328125 -9.984375 C 6.328125 -10.710938 6.132812 -11.269531 5.75 -11.65625 C 5.375 -12.039062 4.875 -12.234375 4.25 -12.234375 C 3.644531 -12.234375 3.148438 -12.039062 2.765625 -11.65625 C 2.390625 -11.269531 2.203125 -10.710938 2.203125 -9.984375 L 2.203125 -8.65625 C 2.203125 -8.257812 2.316406 -7.910156 2.546875 -7.609375 C 2.785156 -7.304688 3.085938 -7.101562 3.453125 -7 L 5.90625 -6.34375 C 6.457031 -6.207031 6.898438 -5.921875 7.234375 -5.484375 C 7.566406 -5.046875 7.734375 -4.546875 7.734375 -3.984375 L 7.734375 -3.0625 C 7.734375 -2.03125 7.414062 -1.210938 6.78125 -0.609375 C 6.15625 -0.015625 5.3125 0.28125 4.25 0.28125 C 3.195312 0.28125 2.359375 -0.015625 1.734375 -0.609375 C 1.109375 -1.210938 0.796875 -2.03125 0.796875 -3.0625 L 0.796875 -3.84375 L 2.203125 -3.84375 L 2.203125 -2.328125 C 2.203125 -1.609375 2.390625 -1.050781 2.765625 -0.65625 C 3.148438 -0.269531 3.644531 -0.078125 4.25 -0.078125 C 4.875 -0.078125 5.375 -0.269531 5.75 -0.65625 C 6.132812 -1.050781 6.328125 -1.609375 6.328125 -2.328125 L 6.328125 -3.65625 C 6.328125 -4.039062 6.207031 -4.382812 5.96875 -4.6875 C 5.726562 -5 5.421875 -5.207031 5.046875 -5.3125 L 2.625 -5.953125 C 2.082031 -6.097656 1.640625 -6.382812 1.296875 -6.8125 C 0.960938 -7.25 0.796875 -7.75 0.796875 -8.3125 L 0.796875 -9.25 C 0.796875 -10.289062 1.109375 -11.109375 1.734375 -11.703125 C 2.359375 -12.296875 3.195312 -12.59375 4.25 -12.59375 Z M 4.25 -12.59375 "/></g></g></g><g mask="url(#435ca4ba37)"><g transform="matrix(1, 0, 0, 1, 30, 12)"><g clip-path="url(#0468dbc03f)"><g clip-path="url(#49f0eeac68)"><path fill="#ffffff" d="M 1.007812 0.976562 L 23.0625 0.976562 L 23.0625 5.277344 L 1.007812 5.277344 Z M 1.007812 0.976562 " fill-opacity="1" fill-rule="nonzero"/></g></g></g></g><g fill="#af4604" fill-opacity="1"><g transform="translate(32.472683, 15.699026)"><g><path d="M 0.484375 -1.53125 C 0.484375 -1.507812 0.484375 -1.488281 0.484375 -1.46875 C 0.484375 -1.445312 0.476562 -1.425781 0.46875 -1.40625 C 0.5 -1.445312 0.523438 -1.484375 0.546875 -1.515625 C 0.566406 -1.554688 0.585938 -1.597656 0.609375 -1.640625 C 0.628906 -1.679688 0.648438 -1.71875 0.671875 -1.75 C 0.703125 -1.78125 0.738281 -1.804688 0.78125 -1.828125 C 0.84375 -1.878906 0.90625 -1.894531 0.96875 -1.875 C 1.03125 -1.863281 1.082031 -1.820312 1.125 -1.75 C 1.164062 -1.695312 1.191406 -1.640625 1.203125 -1.578125 C 1.222656 -1.515625 1.238281 -1.453125 1.25 -1.390625 C 1.25 -1.367188 1.25 -1.347656 1.25 -1.328125 C 1.257812 -1.316406 1.265625 -1.300781 1.265625 -1.28125 C 1.285156 -1.289062 1.296875 -1.300781 1.296875 -1.3125 C 1.296875 -1.320312 1.300781 -1.328125 1.3125 -1.328125 C 1.320312 -1.378906 1.335938 -1.429688 1.359375 -1.484375 C 1.390625 -1.535156 1.421875 -1.582031 1.453125 -1.625 C 1.484375 -1.65625 1.507812 -1.679688 1.53125 -1.703125 C 1.5625 -1.734375 1.59375 -1.757812 1.625 -1.78125 C 1.695312 -1.820312 1.769531 -1.828125 1.84375 -1.796875 C 1.925781 -1.773438 1.988281 -1.726562 2.03125 -1.65625 C 2.050781 -1.613281 2.0625 -1.570312 2.0625 -1.53125 C 2.070312 -1.488281 2.082031 -1.441406 2.09375 -1.390625 C 2.09375 -1.285156 2.085938 -1.175781 2.078125 -1.0625 C 2.078125 -0.957031 2.070312 -0.847656 2.0625 -0.734375 C 2.050781 -0.617188 2.046875 -0.5 2.046875 -0.375 C 2.046875 -0.257812 2.054688 -0.144531 2.078125 -0.03125 C 2.078125 -0.03125 2.078125 -0.0234375 2.078125 -0.015625 C 2.078125 -0.015625 2.078125 -0.0078125 2.078125 0 C 2.078125 0.0078125 2.078125 0.0195312 2.078125 0.03125 C 2.085938 0.0390625 2.097656 0.0507812 2.109375 0.0625 C 2.128906 0.0625 2.140625 0.0546875 2.140625 0.046875 C 2.148438 0.0351562 2.160156 0.03125 2.171875 0.03125 C 2.265625 -0.0625 2.335938 -0.160156 2.390625 -0.265625 C 2.421875 -0.328125 2.445312 -0.390625 2.46875 -0.453125 C 2.5 -0.515625 2.523438 -0.578125 2.546875 -0.640625 C 2.554688 -0.660156 2.5625 -0.675781 2.5625 -0.6875 C 2.570312 -0.6875 2.582031 -0.6875 2.59375 -0.6875 C 2.601562 -0.6875 2.613281 -0.6875 2.625 -0.6875 C 2.632812 -0.6875 2.640625 -0.675781 2.640625 -0.65625 C 2.628906 -0.632812 2.617188 -0.613281 2.609375 -0.59375 C 2.609375 -0.570312 2.601562 -0.554688 2.59375 -0.546875 C 2.5625 -0.441406 2.519531 -0.34375 2.46875 -0.25 C 2.425781 -0.15625 2.375 -0.0664062 2.3125 0.015625 C 2.300781 0.0234375 2.289062 0.0351562 2.28125 0.046875 C 2.269531 0.0546875 2.265625 0.0664062 2.265625 0.078125 C 2.234375 0.117188 2.191406 0.140625 2.140625 0.140625 C 2.097656 0.148438 2.054688 0.144531 2.015625 0.125 C 1.984375 0.101562 1.957031 0.0703125 1.9375 0.03125 C 1.914062 -0.0195312 1.898438 -0.0703125 1.890625 -0.125 C 1.890625 -0.175781 1.890625 -0.234375 1.890625 -0.296875 C 1.878906 -0.421875 1.875 -0.546875 1.875 -0.671875 C 1.875 -0.804688 1.875 -0.9375 1.875 -1.0625 C 1.882812 -1.125 1.890625 -1.1875 1.890625 -1.25 C 1.890625 -1.320312 1.882812 -1.394531 1.875 -1.46875 C 1.863281 -1.507812 1.847656 -1.554688 1.828125 -1.609375 C 1.796875 -1.648438 1.765625 -1.671875 1.734375 -1.671875 C 1.703125 -1.671875 1.671875 -1.65625 1.640625 -1.625 C 1.628906 -1.613281 1.617188 -1.601562 1.609375 -1.59375 C 1.597656 -1.582031 1.585938 -1.566406 1.578125 -1.546875 C 1.441406 -1.285156 1.359375 -1.007812 1.328125 -0.71875 C 1.316406 -0.644531 1.3125 -0.566406 1.3125 -0.484375 C 1.3125 -0.410156 1.3125 -0.335938 1.3125 -0.265625 C 1.3125 -0.222656 1.304688 -0.195312 1.296875 -0.1875 C 1.285156 -0.175781 1.257812 -0.171875 1.21875 -0.171875 C 1.207031 -0.171875 1.195312 -0.171875 1.1875 -0.171875 C 1.175781 -0.171875 1.164062 -0.171875 1.15625 -0.171875 C 1.125 -0.171875 1.101562 -0.171875 1.09375 -0.171875 C 1.09375 -0.179688 1.09375 -0.203125 1.09375 -0.234375 C 1.09375 -0.265625 1.09375 -0.296875 1.09375 -0.328125 C 1.09375 -0.359375 1.09375 -0.390625 1.09375 -0.421875 C 1.09375 -0.578125 1.085938 -0.734375 1.078125 -0.890625 C 1.066406 -1.046875 1.050781 -1.203125 1.03125 -1.359375 C 1.019531 -1.453125 0.992188 -1.546875 0.953125 -1.640625 C 0.953125 -1.648438 0.945312 -1.660156 0.9375 -1.671875 C 0.9375 -1.679688 0.929688 -1.691406 0.921875 -1.703125 C 0.898438 -1.742188 0.867188 -1.75 0.828125 -1.71875 C 0.804688 -1.6875 0.785156 -1.65625 0.765625 -1.625 C 0.742188 -1.601562 0.726562 -1.578125 0.71875 -1.546875 C 0.664062 -1.441406 0.617188 -1.332031 0.578125 -1.21875 C 0.546875 -1.113281 0.515625 -1.007812 0.484375 -0.90625 C 0.460938 -0.78125 0.441406 -0.648438 0.421875 -0.515625 C 0.410156 -0.390625 0.398438 -0.265625 0.390625 -0.140625 C 0.390625 -0.0976562 0.382812 -0.0703125 0.375 -0.0625 C 0.375 -0.0625 0.351562 -0.0625 0.3125 -0.0625 C 0.289062 -0.0625 0.269531 -0.0625 0.25 -0.0625 C 0.207031 -0.0625 0.179688 -0.0625 0.171875 -0.0625 C 0.160156 -0.0703125 0.15625 -0.101562 0.15625 -0.15625 C 0.132812 -0.289062 0.125 -0.425781 0.125 -0.5625 C 0.132812 -0.695312 0.140625 -0.828125 0.140625 -0.953125 C 0.148438 -1.046875 0.15625 -1.140625 0.15625 -1.234375 C 0.164062 -1.328125 0.175781 -1.414062 0.1875 -1.5 C 0.207031 -1.675781 0.234375 -1.847656 0.265625 -2.015625 C 0.273438 -2.046875 0.28125 -2.0625 0.28125 -2.0625 C 0.289062 -2.070312 0.3125 -2.078125 0.34375 -2.078125 C 0.363281 -2.078125 0.382812 -2.078125 0.40625 -2.078125 C 0.425781 -2.078125 0.445312 -2.078125 0.46875 -2.078125 C 0.5 -2.078125 0.515625 -2.0625 0.515625 -2.03125 C 0.523438 -1.988281 0.523438 -1.941406 0.515625 -1.890625 C 0.515625 -1.828125 0.507812 -1.765625 0.5 -1.703125 C 0.5 -1.648438 0.492188 -1.59375 0.484375 -1.53125 Z M 0.484375 -1.53125 "/></g></g></g><g fill="#af4604" fill-opacity="1"><g transform="translate(34.975616, 15.699026)"><g><path d="M 1.4375 -0.75 C 1.46875 -0.738281 1.484375 -0.726562 1.484375 -0.71875 C 1.484375 -0.71875 1.476562 -0.703125 1.46875 -0.671875 C 1.414062 -0.554688 1.363281 -0.441406 1.3125 -0.328125 C 1.257812 -0.210938 1.203125 -0.0976562 1.140625 0.015625 C 1.128906 0.0351562 1.113281 0.0546875 1.09375 0.078125 C 1.082031 0.109375 1.066406 0.132812 1.046875 0.15625 C 1.003906 0.195312 0.957031 0.21875 0.90625 0.21875 C 0.863281 0.226562 0.816406 0.222656 0.765625 0.203125 C 0.722656 0.179688 0.6875 0.148438 0.65625 0.109375 C 0.632812 0.0546875 0.613281 0.00390625 0.59375 -0.046875 C 0.582031 -0.109375 0.570312 -0.164062 0.5625 -0.21875 C 0.5625 -0.28125 0.554688 -0.335938 0.546875 -0.390625 C 0.546875 -0.441406 0.546875 -0.492188 0.546875 -0.546875 C 0.546875 -0.546875 0.546875 -0.550781 0.546875 -0.5625 C 0.546875 -0.570312 0.539062 -0.582031 0.53125 -0.59375 C 0.519531 -0.5625 0.503906 -0.53125 0.484375 -0.5 C 0.472656 -0.476562 0.457031 -0.457031 0.4375 -0.4375 C 0.425781 -0.40625 0.410156 -0.378906 0.390625 -0.359375 C 0.367188 -0.335938 0.347656 -0.316406 0.328125 -0.296875 C 0.296875 -0.253906 0.25 -0.234375 0.1875 -0.234375 C 0.113281 -0.234375 0.0625 -0.265625 0.03125 -0.328125 C 0.0195312 -0.359375 0.0078125 -0.390625 0 -0.421875 C -0.0078125 -0.460938 -0.015625 -0.503906 -0.015625 -0.546875 C -0.015625 -0.617188 -0.0078125 -0.691406 0 -0.765625 C 0.0078125 -0.835938 0.03125 -0.910156 0.0625 -0.984375 C 0.09375 -1.066406 0.140625 -1.132812 0.203125 -1.1875 C 0.265625 -1.25 0.34375 -1.289062 0.4375 -1.3125 C 0.46875 -1.3125 0.492188 -1.304688 0.515625 -1.296875 C 0.546875 -1.296875 0.578125 -1.296875 0.609375 -1.296875 C 0.628906 -1.285156 0.648438 -1.285156 0.671875 -1.296875 C 0.710938 -1.304688 0.75 -1.3125 0.78125 -1.3125 C 0.820312 -1.3125 0.863281 -1.3125 0.90625 -1.3125 C 0.914062 -1.3125 0.921875 -1.304688 0.921875 -1.296875 C 0.921875 -1.296875 0.925781 -1.289062 0.9375 -1.28125 C 0.9375 -1.269531 0.9375 -1.253906 0.9375 -1.234375 C 0.9375 -1.210938 0.9375 -1.195312 0.9375 -1.1875 C 0.9375 -1.039062 0.929688 -0.894531 0.921875 -0.75 C 0.921875 -0.613281 0.914062 -0.472656 0.90625 -0.328125 C 0.894531 -0.273438 0.890625 -0.222656 0.890625 -0.171875 C 0.890625 -0.117188 0.890625 -0.0664062 0.890625 -0.015625 C 0.890625 0.00390625 0.890625 0.0195312 0.890625 0.03125 C 0.898438 0.0507812 0.90625 0.0703125 0.90625 0.09375 C 0.925781 0.0820312 0.9375 0.0703125 0.9375 0.0625 C 0.945312 0.0507812 0.957031 0.0390625 0.96875 0.03125 C 1.007812 -0.03125 1.046875 -0.09375 1.078125 -0.15625 C 1.117188 -0.226562 1.15625 -0.300781 1.1875 -0.375 C 1.21875 -0.425781 1.242188 -0.476562 1.265625 -0.53125 C 1.296875 -0.59375 1.328125 -0.65625 1.359375 -0.71875 C 1.378906 -0.75 1.390625 -0.765625 1.390625 -0.765625 C 1.398438 -0.765625 1.414062 -0.757812 1.4375 -0.75 Z M 0.609375 -1.109375 C 0.617188 -1.140625 0.613281 -1.160156 0.59375 -1.171875 C 0.570312 -1.191406 0.539062 -1.195312 0.5 -1.1875 C 0.488281 -1.1875 0.476562 -1.179688 0.46875 -1.171875 C 0.457031 -1.160156 0.445312 -1.148438 0.4375 -1.140625 C 0.40625 -1.117188 0.378906 -1.097656 0.359375 -1.078125 C 0.347656 -1.054688 0.335938 -1.035156 0.328125 -1.015625 C 0.273438 -0.929688 0.238281 -0.84375 0.21875 -0.75 C 0.195312 -0.65625 0.1875 -0.5625 0.1875 -0.46875 C 0.1875 -0.457031 0.179688 -0.445312 0.171875 -0.4375 C 0.171875 -0.425781 0.175781 -0.421875 0.1875 -0.421875 C 0.1875 -0.398438 0.179688 -0.378906 0.171875 -0.359375 C 0.171875 -0.335938 0.179688 -0.328125 0.203125 -0.328125 C 0.222656 -0.316406 0.238281 -0.320312 0.25 -0.34375 C 0.257812 -0.363281 0.269531 -0.378906 0.28125 -0.390625 C 0.34375 -0.492188 0.398438 -0.597656 0.453125 -0.703125 C 0.503906 -0.804688 0.550781 -0.910156 0.59375 -1.015625 C 0.601562 -1.035156 0.609375 -1.066406 0.609375 -1.109375 Z M 0.609375 -1.109375 "/></g></g></g><g fill="#af4604" fill-opacity="1"><g transform="translate(36.358675, 15.699026)"><g><path d="M 0.515625 -1.296875 C 0.515625 -1.304688 0.515625 -1.3125 0.515625 -1.3125 C 0.523438 -1.320312 0.523438 -1.332031 0.515625 -1.34375 C 0.472656 -1.351562 0.429688 -1.359375 0.390625 -1.359375 C 0.347656 -1.367188 0.304688 -1.378906 0.265625 -1.390625 C 0.253906 -1.347656 0.242188 -1.304688 0.234375 -1.265625 C 0.234375 -1.222656 0.234375 -1.1875 0.234375 -1.15625 C 0.222656 -0.976562 0.203125 -0.800781 0.171875 -0.625 C 0.148438 -0.445312 0.117188 -0.269531 0.078125 -0.09375 C 0.078125 -0.09375 0.078125 -0.0859375 0.078125 -0.078125 C 0.0546875 -0.00390625 0.015625 0.015625 -0.046875 -0.015625 C -0.0546875 -0.015625 -0.0625 -0.015625 -0.0625 -0.015625 C -0.0703125 -0.0234375 -0.078125 -0.0351562 -0.078125 -0.046875 C -0.078125 -0.0859375 -0.0703125 -0.125 -0.0625 -0.15625 C -0.0625 -0.1875 -0.0546875 -0.21875 -0.046875 -0.25 C -0.0234375 -0.382812 -0.0078125 -0.515625 0 -0.640625 C 0.0195312 -0.773438 0.03125 -0.910156 0.03125 -1.046875 C 0.0390625 -1.109375 0.046875 -1.164062 0.046875 -1.21875 C 0.0546875 -1.28125 0.0625 -1.34375 0.0625 -1.40625 C 0.0625 -1.414062 0.0625 -1.425781 0.0625 -1.4375 C 0.0703125 -1.445312 0.078125 -1.457031 0.078125 -1.46875 C 0.078125 -1.507812 0.0976562 -1.523438 0.140625 -1.515625 C 0.171875 -1.515625 0.203125 -1.507812 0.234375 -1.5 C 0.265625 -1.5 0.296875 -1.488281 0.328125 -1.46875 C 0.347656 -1.457031 0.375 -1.445312 0.40625 -1.4375 C 0.4375 -1.4375 0.46875 -1.4375 0.5 -1.4375 C 0.53125 -1.4375 0.5625 -1.4375 0.59375 -1.4375 C 0.632812 -1.4375 0.675781 -1.4375 0.71875 -1.4375 C 0.769531 -1.4375 0.804688 -1.421875 0.828125 -1.390625 C 0.847656 -1.367188 0.851562 -1.332031 0.84375 -1.28125 C 0.832031 -1.21875 0.820312 -1.148438 0.8125 -1.078125 C 0.800781 -1.015625 0.789062 -0.945312 0.78125 -0.875 C 0.757812 -0.757812 0.742188 -0.640625 0.734375 -0.515625 C 0.734375 -0.398438 0.734375 -0.285156 0.734375 -0.171875 C 0.734375 -0.117188 0.738281 -0.0664062 0.75 -0.015625 C 0.757812 0.0234375 0.769531 0.0703125 0.78125 0.125 C 0.789062 0.144531 0.800781 0.15625 0.8125 0.15625 C 0.820312 0.164062 0.835938 0.160156 0.859375 0.140625 C 0.890625 0.117188 0.914062 0.0859375 0.9375 0.046875 C 0.96875 0.015625 0.992188 -0.015625 1.015625 -0.046875 C 1.054688 -0.128906 1.09375 -0.207031 1.125 -0.28125 C 1.15625 -0.363281 1.1875 -0.445312 1.21875 -0.53125 C 1.238281 -0.59375 1.257812 -0.648438 1.28125 -0.703125 C 1.300781 -0.765625 1.320312 -0.820312 1.34375 -0.875 C 1.34375 -0.882812 1.34375 -0.894531 1.34375 -0.90625 C 1.351562 -0.914062 1.363281 -0.921875 1.375 -0.921875 C 1.382812 -0.921875 1.398438 -0.914062 1.421875 -0.90625 C 1.441406 -0.90625 1.457031 -0.90625 1.46875 -0.90625 C 1.476562 -0.894531 1.484375 -0.882812 1.484375 -0.875 C 1.484375 -0.875 1.476562 -0.867188 1.46875 -0.859375 C 1.46875 -0.847656 1.460938 -0.832031 1.453125 -0.8125 C 1.453125 -0.800781 1.453125 -0.789062 1.453125 -0.78125 C 1.410156 -0.65625 1.367188 -0.53125 1.328125 -0.40625 C 1.285156 -0.289062 1.238281 -0.175781 1.1875 -0.0625 C 1.15625 -0.0078125 1.125 0.0351562 1.09375 0.078125 C 1.0625 0.117188 1.023438 0.160156 0.984375 0.203125 C 0.953125 0.234375 0.910156 0.253906 0.859375 0.265625 C 0.804688 0.273438 0.753906 0.273438 0.703125 0.265625 C 0.648438 0.253906 0.613281 0.234375 0.59375 0.203125 C 0.570312 0.171875 0.550781 0.140625 0.53125 0.109375 C 0.488281 0.0351562 0.457031 -0.0351562 0.4375 -0.109375 C 0.425781 -0.191406 0.421875 -0.273438 0.421875 -0.359375 C 0.421875 -0.671875 0.453125 -0.984375 0.515625 -1.296875 Z M 0.515625 -1.296875 "/></g></g></g><g fill="#af4604" fill-opacity="1"><g transform="translate(37.642368, 15.699026)"><g><path d="M 0.515625 -1.296875 C 0.515625 -1.304688 0.515625 -1.3125 0.515625 -1.3125 C 0.523438 -1.320312 0.523438 -1.332031 0.515625 -1.34375 C 0.472656 -1.351562 0.429688 -1.359375 0.390625 -1.359375 C 0.347656 -1.367188 0.304688 -1.378906 0.265625 -1.390625 C 0.253906 -1.347656 0.242188 -1.304688 0.234375 -1.265625 C 0.234375 -1.222656 0.234375 -1.1875 0.234375 -1.15625 C 0.222656 -0.976562 0.203125 -0.800781 0.171875 -0.625 C 0.148438 -0.445312 0.117188 -0.269531 0.078125 -0.09375 C 0.078125 -0.09375 0.078125 -0.0859375 0.078125 -0.078125 C 0.0546875 -0.00390625 0.015625 0.015625 -0.046875 -0.015625 C -0.0546875 -0.015625 -0.0625 -0.015625 -0.0625 -0.015625 C -0.0703125 -0.0234375 -0.078125 -0.0351562 -0.078125 -0.046875 C -0.078125 -0.0859375 -0.0703125 -0.125 -0.0625 -0.15625 C -0.0625 -0.1875 -0.0546875 -0.21875 -0.046875 -0.25 C -0.0234375 -0.382812 -0.0078125 -0.515625 0 -0.640625 C 0.0195312 -0.773438 0.03125 -0.910156 0.03125 -1.046875 C 0.0390625 -1.109375 0.046875 -1.164062 0.046875 -1.21875 C 0.0546875 -1.28125 0.0625 -1.34375 0.0625 -1.40625 C 0.0625 -1.414062 0.0625 -1.425781 0.0625 -1.4375 C 0.0703125 -1.445312 0.078125 -1.457031 0.078125 -1.46875 C 0.078125 -1.507812 0.0976562 -1.523438 0.140625 -1.515625 C 0.171875 -1.515625 0.203125 -1.507812 0.234375 -1.5 C 0.265625 -1.5 0.296875 -1.488281 0.328125 -1.46875 C 0.347656 -1.457031 0.375 -1.445312 0.40625 -1.4375 C 0.4375 -1.4375 0.46875 -1.4375 0.5 -1.4375 C 0.53125 -1.4375 0.5625 -1.4375 0.59375 -1.4375 C 0.632812 -1.4375 0.675781 -1.4375 0.71875 -1.4375 C 0.769531 -1.4375 0.804688 -1.421875 0.828125 -1.390625 C 0.847656 -1.367188 0.851562 -1.332031 0.84375 -1.28125 C 0.832031 -1.21875 0.820312 -1.148438 0.8125 -1.078125 C 0.800781 -1.015625 0.789062 -0.945312 0.78125 -0.875 C 0.757812 -0.757812 0.742188 -0.640625 0.734375 -0.515625 C 0.734375 -0.398438 0.734375 -0.285156 0.734375 -0.171875 C 0.734375 -0.117188 0.738281 -0.0664062 0.75 -0.015625 C 0.757812 0.0234375 0.769531 0.0703125 0.78125 0.125 C 0.789062 0.144531 0.800781 0.15625 0.8125 0.15625 C 0.820312 0.164062 0.835938 0.160156 0.859375 0.140625 C 0.890625 0.117188 0.914062 0.0859375 0.9375 0.046875 C 0.96875 0.015625 0.992188 -0.015625 1.015625 -0.046875 C 1.054688 -0.128906 1.09375 -0.207031 1.125 -0.28125 C 1.15625 -0.363281 1.1875 -0.445312 1.21875 -0.53125 C 1.238281 -0.59375 1.257812 -0.648438 1.28125 -0.703125 C 1.300781 -0.765625 1.320312 -0.820312 1.34375 -0.875 C 1.34375 -0.882812 1.34375 -0.894531 1.34375 -0.90625 C 1.351562 -0.914062 1.363281 -0.921875 1.375 -0.921875 C 1.382812 -0.921875 1.398438 -0.914062 1.421875 -0.90625 C 1.441406 -0.90625 1.457031 -0.90625 1.46875 -0.90625 C 1.476562 -0.894531 1.484375 -0.882812 1.484375 -0.875 C 1.484375 -0.875 1.476562 -0.867188 1.46875 -0.859375 C 1.46875 -0.847656 1.460938 -0.832031 1.453125 -0.8125 C 1.453125 -0.800781 1.453125 -0.789062 1.453125 -0.78125 C 1.410156 -0.65625 1.367188 -0.53125 1.328125 -0.40625 C 1.285156 -0.289062 1.238281 -0.175781 1.1875 -0.0625 C 1.15625 -0.0078125 1.125 0.0351562 1.09375 0.078125 C 1.0625 0.117188 1.023438 0.160156 0.984375 0.203125 C 0.953125 0.234375 0.910156 0.253906 0.859375 0.265625 C 0.804688 0.273438 0.753906 0.273438 0.703125 0.265625 C 0.648438 0.253906 0.613281 0.234375 0.59375 0.203125 C 0.570312 0.171875 0.550781 0.140625 0.53125 0.109375 C 0.488281 0.0351562 0.457031 -0.0351562 0.4375 -0.109375 C 0.425781 -0.191406 0.421875 -0.273438 0.421875 -0.359375 C 0.421875 -0.671875 0.453125 -0.984375 0.515625 -1.296875 Z M 0.515625 -1.296875 "/></g></g></g><g fill="#af4604" fill-opacity="1"><g transform="translate(38.926062, 15.699026)"><g><path d="M 0.796875 -0.78125 C 0.816406 -0.78125 0.820312 -0.769531 0.8125 -0.75 C 0.8125 -0.738281 0.8125 -0.726562 0.8125 -0.71875 C 0.78125 -0.632812 0.742188 -0.554688 0.703125 -0.484375 C 0.671875 -0.410156 0.640625 -0.332031 0.609375 -0.25 C 0.597656 -0.226562 0.585938 -0.207031 0.578125 -0.1875 C 0.566406 -0.164062 0.554688 -0.140625 0.546875 -0.109375 C 0.515625 -0.0546875 0.46875 -0.0195312 0.40625 0 C 0.351562 0.0078125 0.296875 0.0078125 0.234375 0 C 0.179688 -0.0078125 0.140625 -0.0390625 0.109375 -0.09375 C 0.0859375 -0.125 0.0664062 -0.15625 0.046875 -0.1875 C 0.0351562 -0.21875 0.0234375 -0.253906 0.015625 -0.296875 C 0.00390625 -0.347656 0 -0.398438 0 -0.453125 C -0.0078125 -0.515625 -0.015625 -0.570312 -0.015625 -0.625 C -0.015625 -0.726562 -0.0078125 -0.832031 0 -0.9375 C 0.0195312 -1.039062 0.0390625 -1.144531 0.0625 -1.25 C 0.0703125 -1.257812 0.078125 -1.269531 0.078125 -1.28125 C 0.0859375 -1.289062 0.09375 -1.300781 0.09375 -1.3125 C 0.101562 -1.332031 0.117188 -1.34375 0.140625 -1.34375 C 0.148438 -1.34375 0.15625 -1.34375 0.15625 -1.34375 C 0.15625 -1.34375 0.160156 -1.34375 0.171875 -1.34375 C 0.222656 -1.34375 0.253906 -1.335938 0.265625 -1.328125 C 0.273438 -1.316406 0.273438 -1.285156 0.265625 -1.234375 C 0.265625 -1.128906 0.257812 -1.019531 0.25 -0.90625 C 0.238281 -0.800781 0.234375 -0.695312 0.234375 -0.59375 C 0.242188 -0.539062 0.25 -0.484375 0.25 -0.421875 C 0.25 -0.359375 0.253906 -0.300781 0.265625 -0.25 C 0.265625 -0.226562 0.269531 -0.203125 0.28125 -0.171875 C 0.289062 -0.148438 0.300781 -0.132812 0.3125 -0.125 C 0.332031 -0.0820312 0.351562 -0.078125 0.375 -0.109375 C 0.382812 -0.128906 0.394531 -0.144531 0.40625 -0.15625 C 0.414062 -0.175781 0.425781 -0.191406 0.4375 -0.203125 C 0.476562 -0.285156 0.519531 -0.367188 0.5625 -0.453125 C 0.613281 -0.546875 0.660156 -0.632812 0.703125 -0.71875 C 0.703125 -0.726562 0.703125 -0.734375 0.703125 -0.734375 C 0.710938 -0.742188 0.71875 -0.75 0.71875 -0.75 C 0.726562 -0.78125 0.738281 -0.796875 0.75 -0.796875 C 0.757812 -0.796875 0.773438 -0.789062 0.796875 -0.78125 Z M 0.21875 -1.484375 C 0.144531 -1.484375 0.109375 -1.515625 0.109375 -1.578125 C 0.109375 -1.609375 0.117188 -1.632812 0.140625 -1.65625 C 0.160156 -1.6875 0.1875 -1.703125 0.21875 -1.703125 C 0.257812 -1.703125 0.289062 -1.691406 0.3125 -1.671875 C 0.332031 -1.648438 0.34375 -1.625 0.34375 -1.59375 C 0.34375 -1.519531 0.300781 -1.484375 0.21875 -1.484375 Z M 0.21875 -1.484375 "/></g></g></g><g fill="#af4604" fill-opacity="1"><g transform="translate(39.643104, 15.699026)"><g><path d="M 1.4375 -0.75 C 1.46875 -0.738281 1.484375 -0.726562 1.484375 -0.71875 C 1.484375 -0.71875 1.476562 -0.703125 1.46875 -0.671875 C 1.414062 -0.554688 1.363281 -0.441406 1.3125 -0.328125 C 1.257812 -0.210938 1.203125 -0.0976562 1.140625 0.015625 C 1.128906 0.0351562 1.113281 0.0546875 1.09375 0.078125 C 1.082031 0.109375 1.066406 0.132812 1.046875 0.15625 C 1.003906 0.195312 0.957031 0.21875 0.90625 0.21875 C 0.863281 0.226562 0.816406 0.222656 0.765625 0.203125 C 0.722656 0.179688 0.6875 0.148438 0.65625 0.109375 C 0.632812 0.0546875 0.613281 0.00390625 0.59375 -0.046875 C 0.582031 -0.109375 0.570312 -0.164062 0.5625 -0.21875 C 0.5625 -0.28125 0.554688 -0.335938 0.546875 -0.390625 C 0.546875 -0.441406 0.546875 -0.492188 0.546875 -0.546875 C 0.546875 -0.546875 0.546875 -0.550781 0.546875 -0.5625 C 0.546875 -0.570312 0.539062 -0.582031 0.53125 -0.59375 C 0.519531 -0.5625 0.503906 -0.53125 0.484375 -0.5 C 0.472656 -0.476562 0.457031 -0.457031 0.4375 -0.4375 C 0.425781 -0.40625 0.410156 -0.378906 0.390625 -0.359375 C 0.367188 -0.335938 0.347656 -0.316406 0.328125 -0.296875 C 0.296875 -0.253906 0.25 -0.234375 0.1875 -0.234375 C 0.113281 -0.234375 0.0625 -0.265625 0.03125 -0.328125 C 0.0195312 -0.359375 0.0078125 -0.390625 0 -0.421875 C -0.0078125 -0.460938 -0.015625 -0.503906 -0.015625 -0.546875 C -0.015625 -0.617188 -0.0078125 -0.691406 0 -0.765625 C 0.0078125 -0.835938 0.03125 -0.910156 0.0625 -0.984375 C 0.09375 -1.066406 0.140625 -1.132812 0.203125 -1.1875 C 0.265625 -1.25 0.34375 -1.289062 0.4375 -1.3125 C 0.46875 -1.3125 0.492188 -1.304688 0.515625 -1.296875 C 0.546875 -1.296875 0.578125 -1.296875 0.609375 -1.296875 C 0.628906 -1.285156 0.648438 -1.285156 0.671875 -1.296875 C 0.710938 -1.304688 0.75 -1.3125 0.78125 -1.3125 C 0.820312 -1.3125 0.863281 -1.3125 0.90625 -1.3125 C 0.914062 -1.3125 0.921875 -1.304688 0.921875 -1.296875 C 0.921875 -1.296875 0.925781 -1.289062 0.9375 -1.28125 C 0.9375 -1.269531 0.9375 -1.253906 0.9375 -1.234375 C 0.9375 -1.210938 0.9375 -1.195312 0.9375 -1.1875 C 0.9375 -1.039062 0.929688 -0.894531 0.921875 -0.75 C 0.921875 -0.613281 0.914062 -0.472656 0.90625 -0.328125 C 0.894531 -0.273438 0.890625 -0.222656 0.890625 -0.171875 C 0.890625 -0.117188 0.890625 -0.0664062 0.890625 -0.015625 C 0.890625 0.00390625 0.890625 0.0195312 0.890625 0.03125 C 0.898438 0.0507812 0.90625 0.0703125 0.90625 0.09375 C 0.925781 0.0820312 0.9375 0.0703125 0.9375 0.0625 C 0.945312 0.0507812 0.957031 0.0390625 0.96875 0.03125 C 1.007812 -0.03125 1.046875 -0.09375 1.078125 -0.15625 C 1.117188 -0.226562 1.15625 -0.300781 1.1875 -0.375 C 1.21875 -0.425781 1.242188 -0.476562 1.265625 -0.53125 C 1.296875 -0.59375 1.328125 -0.65625 1.359375 -0.71875 C 1.378906 -0.75 1.390625 -0.765625 1.390625 -0.765625 C 1.398438 -0.765625 1.414062 -0.757812 1.4375 -0.75 Z M 0.609375 -1.109375 C 0.617188 -1.140625 0.613281 -1.160156 0.59375 -1.171875 C 0.570312 -1.191406 0.539062 -1.195312 0.5 -1.1875 C 0.488281 -1.1875 0.476562 -1.179688 0.46875 -1.171875 C 0.457031 -1.160156 0.445312 -1.148438 0.4375 -1.140625 C 0.40625 -1.117188 0.378906 -1.097656 0.359375 -1.078125 C 0.347656 -1.054688 0.335938 -1.035156 0.328125 -1.015625 C 0.273438 -0.929688 0.238281 -0.84375 0.21875 -0.75 C 0.195312 -0.65625 0.1875 -0.5625 0.1875 -0.46875 C 0.1875 -0.457031 0.179688 -0.445312 0.171875 -0.4375 C 0.171875 -0.425781 0.175781 -0.421875 0.1875 -0.421875 C 0.1875 -0.398438 0.179688 -0.378906 0.171875 -0.359375 C 0.171875 -0.335938 0.179688 -0.328125 0.203125 -0.328125 C 0.222656 -0.316406 0.238281 -0.320312 0.25 -0.34375 C 0.257812 -0.363281 0.269531 -0.378906 0.28125 -0.390625 C 0.34375 -0.492188 0.398438 -0.597656 0.453125 -0.703125 C 0.503906 -0.804688 0.550781 -0.910156 0.59375 -1.015625 C 0.601562 -1.035156 0.609375 -1.066406 0.609375 -1.109375 Z M 0.609375 -1.109375 "/></g></g></g><g fill="#af4604" fill-opacity="1"><g transform="translate(41.026163, 15.699026)"><g><path d="M 0.921875 -0.375 C 0.921875 -0.375 0.921875 -0.367188 0.921875 -0.359375 C 0.929688 -0.359375 0.9375 -0.359375 0.9375 -0.359375 C 0.988281 -0.398438 1.035156 -0.441406 1.078125 -0.484375 C 1.128906 -0.535156 1.175781 -0.59375 1.21875 -0.65625 C 1.226562 -0.65625 1.234375 -0.65625 1.234375 -0.65625 C 1.242188 -0.664062 1.25 -0.675781 1.25 -0.6875 C 1.257812 -0.695312 1.265625 -0.703125 1.265625 -0.703125 C 1.273438 -0.710938 1.289062 -0.710938 1.3125 -0.703125 C 1.320312 -0.691406 1.328125 -0.679688 1.328125 -0.671875 C 1.335938 -0.660156 1.335938 -0.648438 1.328125 -0.640625 C 1.304688 -0.609375 1.285156 -0.582031 1.265625 -0.5625 C 1.242188 -0.539062 1.222656 -0.519531 1.203125 -0.5 C 1.117188 -0.40625 1.03125 -0.328125 0.9375 -0.265625 C 0.90625 -0.234375 0.882812 -0.195312 0.875 -0.15625 C 0.863281 -0.09375 0.847656 -0.03125 0.828125 0.03125 C 0.804688 0.09375 0.773438 0.15625 0.734375 0.21875 C 0.703125 0.289062 0.660156 0.351562 0.609375 0.40625 C 0.492188 0.53125 0.351562 0.585938 0.1875 0.578125 C 0.101562 0.566406 0.0390625 0.53125 0 0.46875 C -0.03125 0.40625 -0.0351562 0.335938 -0.015625 0.265625 C -0.00390625 0.210938 0.015625 0.171875 0.046875 0.140625 C 0.078125 0.109375 0.113281 0.078125 0.15625 0.046875 C 0.195312 0.015625 0.238281 -0.0078125 0.28125 -0.03125 C 0.332031 -0.0625 0.382812 -0.0820312 0.4375 -0.09375 C 0.46875 -0.101562 0.488281 -0.117188 0.5 -0.140625 C 0.519531 -0.160156 0.53125 -0.1875 0.53125 -0.21875 C 0.53125 -0.269531 0.535156 -0.320312 0.546875 -0.375 C 0.554688 -0.4375 0.5625 -0.492188 0.5625 -0.546875 C 0.5625 -0.554688 0.5625 -0.566406 0.5625 -0.578125 C 0.5625 -0.585938 0.5625 -0.601562 0.5625 -0.625 C 0.550781 -0.625 0.539062 -0.617188 0.53125 -0.609375 C 0.53125 -0.597656 0.53125 -0.585938 0.53125 -0.578125 C 0.507812 -0.535156 0.488281 -0.492188 0.46875 -0.453125 C 0.445312 -0.410156 0.425781 -0.367188 0.40625 -0.328125 C 0.394531 -0.316406 0.382812 -0.300781 0.375 -0.28125 C 0.375 -0.269531 0.367188 -0.257812 0.359375 -0.25 C 0.328125 -0.195312 0.285156 -0.164062 0.234375 -0.15625 C 0.191406 -0.144531 0.144531 -0.148438 0.09375 -0.171875 C 0.0703125 -0.179688 0.0507812 -0.191406 0.03125 -0.203125 C 0.0195312 -0.210938 0.0078125 -0.226562 0 -0.25 C -0.0195312 -0.300781 -0.0351562 -0.359375 -0.046875 -0.421875 C -0.0546875 -0.628906 -0.0078125 -0.828125 0.09375 -1.015625 C 0.132812 -1.085938 0.179688 -1.144531 0.234375 -1.1875 C 0.285156 -1.238281 0.351562 -1.273438 0.4375 -1.296875 C 0.46875 -1.304688 0.492188 -1.3125 0.515625 -1.3125 C 0.546875 -1.3125 0.578125 -1.304688 0.609375 -1.296875 C 0.617188 -1.296875 0.628906 -1.289062 0.640625 -1.28125 C 0.648438 -1.28125 0.660156 -1.289062 0.671875 -1.3125 C 0.671875 -1.320312 0.675781 -1.328125 0.6875 -1.328125 C 0.695312 -1.328125 0.703125 -1.328125 0.703125 -1.328125 C 0.734375 -1.335938 0.757812 -1.34375 0.78125 -1.34375 C 0.8125 -1.34375 0.84375 -1.347656 0.875 -1.359375 C 0.90625 -1.359375 0.925781 -1.34375 0.9375 -1.3125 C 0.9375 -1.269531 0.9375 -1.226562 0.9375 -1.1875 C 0.945312 -1.15625 0.953125 -1.125 0.953125 -1.09375 C 0.960938 -0.882812 0.957031 -0.675781 0.9375 -0.46875 C 0.925781 -0.445312 0.921875 -0.425781 0.921875 -0.40625 C 0.921875 -0.394531 0.921875 -0.382812 0.921875 -0.375 Z M 0.609375 -1.046875 C 0.609375 -1.054688 0.609375 -1.066406 0.609375 -1.078125 C 0.617188 -1.097656 0.625 -1.113281 0.625 -1.125 C 0.625 -1.164062 0.609375 -1.191406 0.578125 -1.203125 C 0.554688 -1.222656 0.53125 -1.226562 0.5 -1.21875 C 0.476562 -1.207031 0.457031 -1.191406 0.4375 -1.171875 C 0.425781 -1.148438 0.414062 -1.132812 0.40625 -1.125 C 0.351562 -1.050781 0.3125 -0.972656 0.28125 -0.890625 C 0.257812 -0.804688 0.242188 -0.722656 0.234375 -0.640625 C 0.222656 -0.597656 0.210938 -0.550781 0.203125 -0.5 C 0.191406 -0.457031 0.1875 -0.410156 0.1875 -0.359375 C 0.195312 -0.347656 0.203125 -0.332031 0.203125 -0.3125 C 0.203125 -0.289062 0.210938 -0.28125 0.234375 -0.28125 C 0.253906 -0.28125 0.265625 -0.285156 0.265625 -0.296875 C 0.273438 -0.316406 0.28125 -0.332031 0.28125 -0.34375 C 0.3125 -0.382812 0.335938 -0.429688 0.359375 -0.484375 C 0.378906 -0.535156 0.398438 -0.582031 0.421875 -0.625 C 0.453125 -0.695312 0.484375 -0.765625 0.515625 -0.828125 C 0.546875 -0.898438 0.578125 -0.972656 0.609375 -1.046875 Z M 0.34375 0.40625 C 0.382812 0.34375 0.414062 0.273438 0.4375 0.203125 C 0.46875 0.128906 0.488281 0.046875 0.5 -0.046875 C 0.445312 -0.0234375 0.394531 -0.00390625 0.34375 0.015625 C 0.300781 0.046875 0.257812 0.078125 0.21875 0.109375 C 0.175781 0.148438 0.144531 0.191406 0.125 0.234375 C 0.113281 0.253906 0.109375 0.273438 0.109375 0.296875 C 0.109375 0.328125 0.109375 0.351562 0.109375 0.375 C 0.117188 0.40625 0.128906 0.429688 0.140625 0.453125 C 0.160156 0.472656 0.1875 0.484375 0.21875 0.484375 C 0.25 0.492188 0.273438 0.488281 0.296875 0.46875 C 0.316406 0.457031 0.332031 0.441406 0.34375 0.421875 C 0.34375 0.421875 0.34375 0.414062 0.34375 0.40625 Z M 0.34375 0.40625 "/></g></g></g><g fill="#af4604" fill-opacity="1"><g transform="translate(42.25883, 15.699026)"><g><path d="M 1.125 -0.78125 C 1.144531 -0.769531 1.148438 -0.757812 1.140625 -0.75 C 1.140625 -0.738281 1.132812 -0.726562 1.125 -0.71875 C 1.0625 -0.625 0.992188 -0.53125 0.921875 -0.4375 C 0.859375 -0.34375 0.796875 -0.253906 0.734375 -0.171875 C 0.691406 -0.117188 0.644531 -0.0820312 0.59375 -0.0625 C 0.539062 -0.0390625 0.484375 -0.03125 0.421875 -0.03125 C 0.367188 -0.03125 0.316406 -0.0390625 0.265625 -0.0625 C 0.222656 -0.09375 0.179688 -0.125 0.140625 -0.15625 C 0.0976562 -0.21875 0.0625 -0.28125 0.03125 -0.34375 C 0 -0.414062 -0.0195312 -0.492188 -0.03125 -0.578125 C -0.03125 -0.597656 -0.03125 -0.625 -0.03125 -0.65625 C -0.0390625 -0.6875 -0.046875 -0.710938 -0.046875 -0.734375 C -0.046875 -0.828125 -0.0351562 -0.914062 -0.015625 -1 C 0.00390625 -1.082031 0.0351562 -1.160156 0.078125 -1.234375 C 0.0976562 -1.273438 0.125 -1.316406 0.15625 -1.359375 C 0.195312 -1.398438 0.238281 -1.429688 0.28125 -1.453125 C 0.332031 -1.484375 0.378906 -1.5 0.421875 -1.5 C 0.472656 -1.507812 0.523438 -1.492188 0.578125 -1.453125 C 0.628906 -1.421875 0.660156 -1.378906 0.671875 -1.328125 C 0.691406 -1.285156 0.703125 -1.234375 0.703125 -1.171875 C 0.679688 -1.066406 0.640625 -0.976562 0.578125 -0.90625 C 0.523438 -0.832031 0.445312 -0.78125 0.34375 -0.75 C 0.3125 -0.738281 0.296875 -0.71875 0.296875 -0.6875 C 0.296875 -0.613281 0.300781 -0.539062 0.3125 -0.46875 C 0.332031 -0.394531 0.351562 -0.320312 0.375 -0.25 C 0.382812 -0.21875 0.398438 -0.1875 0.421875 -0.15625 C 0.453125 -0.125 0.488281 -0.125 0.53125 -0.15625 C 0.550781 -0.15625 0.566406 -0.160156 0.578125 -0.171875 C 0.585938 -0.191406 0.597656 -0.207031 0.609375 -0.21875 C 0.671875 -0.289062 0.726562 -0.363281 0.78125 -0.4375 C 0.84375 -0.519531 0.90625 -0.601562 0.96875 -0.6875 C 0.976562 -0.695312 0.988281 -0.707031 1 -0.71875 C 1.007812 -0.738281 1.019531 -0.757812 1.03125 -0.78125 C 1.050781 -0.789062 1.066406 -0.796875 1.078125 -0.796875 C 1.085938 -0.796875 1.101562 -0.789062 1.125 -0.78125 Z M 0.328125 -1.109375 C 0.316406 -1.066406 0.304688 -1.019531 0.296875 -0.96875 C 0.296875 -0.925781 0.296875 -0.882812 0.296875 -0.84375 C 0.304688 -0.84375 0.3125 -0.84375 0.3125 -0.84375 C 0.320312 -0.84375 0.328125 -0.847656 0.328125 -0.859375 C 0.378906 -0.878906 0.414062 -0.914062 0.4375 -0.96875 C 0.46875 -1.019531 0.488281 -1.070312 0.5 -1.125 C 0.519531 -1.1875 0.519531 -1.242188 0.5 -1.296875 C 0.5 -1.296875 0.5 -1.300781 0.5 -1.3125 C 0.488281 -1.320312 0.476562 -1.332031 0.46875 -1.34375 C 0.46875 -1.351562 0.460938 -1.359375 0.453125 -1.359375 C 0.441406 -1.359375 0.429688 -1.351562 0.421875 -1.34375 C 0.410156 -1.332031 0.40625 -1.320312 0.40625 -1.3125 C 0.394531 -1.28125 0.378906 -1.242188 0.359375 -1.203125 C 0.347656 -1.171875 0.335938 -1.140625 0.328125 -1.109375 Z M 0.328125 -1.109375 "/></g></g></g><g fill="#af4604" fill-opacity="1"><g transform="translate(43.271283, 15.699026)"><g/></g></g><g fill="#af4604" fill-opacity="1"><g transform="translate(44.114546, 15.699026)"><g><path d="M 0.796875 -1.65625 C 0.804688 -1.5625 0.8125 -1.472656 0.8125 -1.390625 C 0.820312 -1.316406 0.828125 -1.242188 0.828125 -1.171875 C 0.828125 -1.015625 0.820312 -0.863281 0.8125 -0.71875 C 0.800781 -0.570312 0.769531 -0.429688 0.71875 -0.296875 C 0.71875 -0.273438 0.71875 -0.257812 0.71875 -0.25 C 0.71875 -0.238281 0.726562 -0.226562 0.75 -0.21875 C 0.8125 -0.195312 0.875 -0.175781 0.9375 -0.15625 C 1 -0.132812 1.066406 -0.117188 1.140625 -0.109375 C 1.242188 -0.0859375 1.347656 -0.09375 1.453125 -0.125 C 1.460938 -0.125 1.472656 -0.125 1.484375 -0.125 C 1.492188 -0.132812 1.503906 -0.140625 1.515625 -0.140625 C 1.546875 -0.148438 1.566406 -0.140625 1.578125 -0.109375 C 1.578125 -0.0859375 1.566406 -0.0664062 1.546875 -0.046875 C 1.492188 -0.0351562 1.441406 -0.0234375 1.390625 -0.015625 C 1.347656 -0.00390625 1.300781 0 1.25 0 C 1.125 0.0078125 1 -0.00390625 0.875 -0.046875 C 0.84375 -0.0546875 0.8125 -0.0664062 0.78125 -0.078125 C 0.757812 -0.0859375 0.738281 -0.0976562 0.71875 -0.109375 C 0.6875 -0.117188 0.664062 -0.117188 0.65625 -0.109375 C 0.65625 -0.109375 0.644531 -0.0976562 0.625 -0.078125 C 0.613281 -0.0546875 0.597656 -0.03125 0.578125 0 C 0.566406 0.0195312 0.550781 0.0390625 0.53125 0.0625 C 0.46875 0.132812 0.394531 0.179688 0.3125 0.203125 C 0.238281 0.234375 0.15625 0.242188 0.0625 0.234375 C -0.0078125 0.222656 -0.0625 0.1875 -0.09375 0.125 C -0.132812 0.0703125 -0.144531 0.0078125 -0.125 -0.0625 C -0.113281 -0.113281 -0.09375 -0.15625 -0.0625 -0.1875 C -0.03125 -0.226562 0.00390625 -0.257812 0.046875 -0.28125 C 0.128906 -0.332031 0.222656 -0.359375 0.328125 -0.359375 C 0.359375 -0.347656 0.375 -0.347656 0.375 -0.359375 C 0.382812 -0.367188 0.394531 -0.390625 0.40625 -0.421875 C 0.414062 -0.484375 0.421875 -0.546875 0.421875 -0.609375 C 0.429688 -0.679688 0.441406 -0.75 0.453125 -0.8125 C 0.453125 -0.976562 0.453125 -1.140625 0.453125 -1.296875 C 0.460938 -1.460938 0.46875 -1.628906 0.46875 -1.796875 C 0.46875 -1.804688 0.46875 -1.8125 0.46875 -1.8125 C 0.476562 -1.820312 0.484375 -1.832031 0.484375 -1.84375 C 0.472656 -1.882812 0.488281 -1.90625 0.53125 -1.90625 C 0.5625 -1.90625 0.585938 -1.90625 0.609375 -1.90625 C 0.640625 -1.90625 0.671875 -1.910156 0.703125 -1.921875 C 0.722656 -1.921875 0.738281 -1.914062 0.75 -1.90625 C 0.757812 -1.894531 0.765625 -1.882812 0.765625 -1.875 C 0.785156 -1.800781 0.796875 -1.726562 0.796875 -1.65625 Z M 0.3125 -0.25 C 0.269531 -0.257812 0.226562 -0.253906 0.1875 -0.234375 C 0.15625 -0.222656 0.128906 -0.195312 0.109375 -0.15625 C 0.0859375 -0.125 0.078125 -0.0859375 0.078125 -0.046875 C 0.078125 0.00390625 0.09375 0.046875 0.125 0.078125 C 0.144531 0.109375 0.164062 0.113281 0.1875 0.09375 C 0.1875 0.0820312 0.1875 0.0703125 0.1875 0.0625 C 0.195312 0.0625 0.207031 0.0625 0.21875 0.0625 C 0.25 0.0195312 0.273438 -0.0195312 0.296875 -0.0625 C 0.316406 -0.101562 0.332031 -0.148438 0.34375 -0.203125 C 0.351562 -0.222656 0.351562 -0.234375 0.34375 -0.234375 C 0.332031 -0.242188 0.320312 -0.25 0.3125 -0.25 Z M 0.3125 -0.25 "/></g></g></g><g fill="#af4604" fill-opacity="1"><g transform="translate(45.631881, 15.699026)"><g><path d="M 0.796875 -0.78125 C 0.816406 -0.78125 0.820312 -0.769531 0.8125 -0.75 C 0.8125 -0.738281 0.8125 -0.726562 0.8125 -0.71875 C 0.78125 -0.632812 0.742188 -0.554688 0.703125 -0.484375 C 0.671875 -0.410156 0.640625 -0.332031 0.609375 -0.25 C 0.597656 -0.226562 0.585938 -0.207031 0.578125 -0.1875 C 0.566406 -0.164062 0.554688 -0.140625 0.546875 -0.109375 C 0.515625 -0.0546875 0.46875 -0.0195312 0.40625 0 C 0.351562 0.0078125 0.296875 0.0078125 0.234375 0 C 0.179688 -0.0078125 0.140625 -0.0390625 0.109375 -0.09375 C 0.0859375 -0.125 0.0664062 -0.15625 0.046875 -0.1875 C 0.0351562 -0.21875 0.0234375 -0.253906 0.015625 -0.296875 C 0.00390625 -0.347656 0 -0.398438 0 -0.453125 C -0.0078125 -0.515625 -0.015625 -0.570312 -0.015625 -0.625 C -0.015625 -0.726562 -0.0078125 -0.832031 0 -0.9375 C 0.0195312 -1.039062 0.0390625 -1.144531 0.0625 -1.25 C 0.0703125 -1.257812 0.078125 -1.269531 0.078125 -1.28125 C 0.0859375 -1.289062 0.09375 -1.300781 0.09375 -1.3125 C 0.101562 -1.332031 0.117188 -1.34375 0.140625 -1.34375 C 0.148438 -1.34375 0.15625 -1.34375 0.15625 -1.34375 C 0.15625 -1.34375 0.160156 -1.34375 0.171875 -1.34375 C 0.222656 -1.34375 0.253906 -1.335938 0.265625 -1.328125 C 0.273438 -1.316406 0.273438 -1.285156 0.265625 -1.234375 C 0.265625 -1.128906 0.257812 -1.019531 0.25 -0.90625 C 0.238281 -0.800781 0.234375 -0.695312 0.234375 -0.59375 C 0.242188 -0.539062 0.25 -0.484375 0.25 -0.421875 C 0.25 -0.359375 0.253906 -0.300781 0.265625 -0.25 C 0.265625 -0.226562 0.269531 -0.203125 0.28125 -0.171875 C 0.289062 -0.148438 0.300781 -0.132812 0.3125 -0.125 C 0.332031 -0.0820312 0.351562 -0.078125 0.375 -0.109375 C 0.382812 -0.128906 0.394531 -0.144531 0.40625 -0.15625 C 0.414062 -0.175781 0.425781 -0.191406 0.4375 -0.203125 C 0.476562 -0.285156 0.519531 -0.367188 0.5625 -0.453125 C 0.613281 -0.546875 0.660156 -0.632812 0.703125 -0.71875 C 0.703125 -0.726562 0.703125 -0.734375 0.703125 -0.734375 C 0.710938 -0.742188 0.71875 -0.75 0.71875 -0.75 C 0.726562 -0.78125 0.738281 -0.796875 0.75 -0.796875 C 0.757812 -0.796875 0.773438 -0.789062 0.796875 -0.78125 Z M 0.21875 -1.484375 C 0.144531 -1.484375 0.109375 -1.515625 0.109375 -1.578125 C 0.109375 -1.609375 0.117188 -1.632812 0.140625 -1.65625 C 0.160156 -1.6875 0.1875 -1.703125 0.21875 -1.703125 C 0.257812 -1.703125 0.289062 -1.691406 0.3125 -1.671875 C 0.332031 -1.648438 0.34375 -1.625 0.34375 -1.59375 C 0.34375 -1.519531 0.300781 -1.484375 0.21875 -1.484375 Z M 0.21875 -1.484375 "/></g></g></g><g fill="#af4604" fill-opacity="1"><g transform="translate(46.348923, 15.699026)"><g><path d="M 1.515625 -0.78125 C 1.535156 -0.78125 1.546875 -0.773438 1.546875 -0.765625 C 1.554688 -0.753906 1.5625 -0.738281 1.5625 -0.71875 C 1.53125 -0.601562 1.492188 -0.492188 1.453125 -0.390625 C 1.410156 -0.285156 1.363281 -0.1875 1.3125 -0.09375 C 1.28125 -0.0625 1.253906 -0.03125 1.234375 0 C 1.191406 0.03125 1.140625 0.0507812 1.078125 0.0625 C 1.023438 0.0703125 0.972656 0.0664062 0.921875 0.046875 C 0.898438 0.0351562 0.878906 0.0195312 0.859375 0 C 0.847656 -0.0195312 0.835938 -0.046875 0.828125 -0.078125 C 0.816406 -0.117188 0.804688 -0.160156 0.796875 -0.203125 C 0.785156 -0.242188 0.78125 -0.285156 0.78125 -0.328125 C 0.78125 -0.421875 0.78125 -0.507812 0.78125 -0.59375 C 0.789062 -0.6875 0.796875 -0.78125 0.796875 -0.875 C 0.804688 -0.976562 0.800781 -1.078125 0.78125 -1.171875 C 0.769531 -1.191406 0.765625 -1.207031 0.765625 -1.21875 C 0.765625 -1.238281 0.753906 -1.25 0.734375 -1.25 C 0.710938 -1.25 0.695312 -1.242188 0.6875 -1.234375 C 0.675781 -1.222656 0.664062 -1.210938 0.65625 -1.203125 C 0.550781 -1.078125 0.472656 -0.9375 0.421875 -0.78125 C 0.378906 -0.65625 0.34375 -0.53125 0.3125 -0.40625 C 0.28125 -0.28125 0.25 -0.15625 0.21875 -0.03125 C 0.21875 0.0078125 0.210938 0.03125 0.203125 0.03125 C 0.191406 0.0390625 0.171875 0.046875 0.140625 0.046875 C 0.128906 0.046875 0.113281 0.046875 0.09375 0.046875 C 0.0820312 0.046875 0.0703125 0.046875 0.0625 0.046875 C 0.0195312 0.046875 -0.00390625 0.0390625 -0.015625 0.03125 C -0.0234375 0.03125 -0.03125 0.0078125 -0.03125 -0.03125 C -0.0390625 -0.0703125 -0.046875 -0.113281 -0.046875 -0.15625 C -0.0546875 -0.207031 -0.0625 -0.257812 -0.0625 -0.3125 C -0.0703125 -0.476562 -0.0703125 -0.644531 -0.0625 -0.8125 C -0.0507812 -0.976562 -0.0351562 -1.148438 -0.015625 -1.328125 C -0.015625 -1.328125 -0.0078125 -1.332031 0 -1.34375 C 0 -1.351562 0 -1.359375 0 -1.359375 C 0 -1.398438 0.0195312 -1.421875 0.0625 -1.421875 C 0.101562 -1.421875 0.148438 -1.421875 0.203125 -1.421875 C 0.234375 -1.421875 0.25 -1.40625 0.25 -1.375 C 0.25 -1.34375 0.25 -1.320312 0.25 -1.3125 C 0.25 -1.238281 0.25 -1.164062 0.25 -1.09375 C 0.25 -1.03125 0.25 -0.96875 0.25 -0.90625 C 0.25 -0.894531 0.25 -0.882812 0.25 -0.875 C 0.25 -0.863281 0.25 -0.847656 0.25 -0.828125 C 0.269531 -0.835938 0.28125 -0.847656 0.28125 -0.859375 C 0.28125 -0.867188 0.285156 -0.878906 0.296875 -0.890625 C 0.316406 -0.953125 0.34375 -1.007812 0.375 -1.0625 C 0.40625 -1.113281 0.441406 -1.164062 0.484375 -1.21875 C 0.515625 -1.25 0.546875 -1.273438 0.578125 -1.296875 C 0.617188 -1.328125 0.660156 -1.347656 0.703125 -1.359375 C 0.816406 -1.390625 0.898438 -1.351562 0.953125 -1.25 C 0.972656 -1.21875 0.984375 -1.1875 0.984375 -1.15625 C 0.992188 -1.125 1.003906 -1.085938 1.015625 -1.046875 C 1.015625 -0.992188 1.015625 -0.941406 1.015625 -0.890625 C 1.015625 -0.835938 1.007812 -0.785156 1 -0.734375 C 0.988281 -0.640625 0.984375 -0.539062 0.984375 -0.4375 C 0.984375 -0.34375 0.992188 -0.25 1.015625 -0.15625 C 1.015625 -0.144531 1.015625 -0.132812 1.015625 -0.125 C 1.023438 -0.101562 1.03125 -0.0820312 1.03125 -0.0625 C 1.039062 -0.0507812 1.054688 -0.046875 1.078125 -0.046875 C 1.097656 -0.0351562 1.113281 -0.0351562 1.125 -0.046875 C 1.132812 -0.0664062 1.144531 -0.0820312 1.15625 -0.09375 C 1.175781 -0.113281 1.191406 -0.132812 1.203125 -0.15625 C 1.222656 -0.1875 1.238281 -0.21875 1.25 -0.25 C 1.289062 -0.320312 1.328125 -0.398438 1.359375 -0.484375 C 1.390625 -0.566406 1.421875 -0.648438 1.453125 -0.734375 C 1.453125 -0.753906 1.453125 -0.769531 1.453125 -0.78125 C 1.460938 -0.789062 1.484375 -0.789062 1.515625 -0.78125 Z M 1.515625 -0.78125 "/></g></g></g><g fill="#af4604" fill-opacity="1"><g transform="translate(47.777636, 15.699026)"><g><path d="M 0.375 -0.25 C 0.363281 -0.257812 0.347656 -0.269531 0.328125 -0.28125 C 0.316406 -0.300781 0.300781 -0.316406 0.28125 -0.328125 C 0.28125 -0.296875 0.273438 -0.257812 0.265625 -0.21875 C 0.265625 -0.175781 0.265625 -0.140625 0.265625 -0.109375 C 0.265625 -0.078125 0.265625 -0.0507812 0.265625 -0.03125 C 0.265625 -0.0078125 0.265625 0.015625 0.265625 0.046875 C 0.265625 0.078125 0.25 0.09375 0.21875 0.09375 C 0.207031 0.09375 0.195312 0.09375 0.1875 0.09375 C 0.175781 0.09375 0.164062 0.09375 0.15625 0.09375 C 0.125 0.09375 0.0976562 0.0859375 0.078125 0.078125 C 0.0664062 0.078125 0.0546875 0.0703125 0.046875 0.0625 C 0.046875 0.0507812 0.046875 0.0234375 0.046875 -0.015625 C 0.00390625 -0.222656 -0.015625 -0.425781 -0.015625 -0.625 C -0.015625 -0.832031 -0.0078125 -1.039062 0 -1.25 C 0.0078125 -1.351562 0.015625 -1.453125 0.015625 -1.546875 C 0.0234375 -1.648438 0.0390625 -1.753906 0.0625 -1.859375 C 0.0625 -1.878906 0.0625 -1.894531 0.0625 -1.90625 C 0.0625 -1.925781 0.0664062 -1.945312 0.078125 -1.96875 C 0.078125 -2 0.09375 -2.015625 0.125 -2.015625 C 0.15625 -2.015625 0.179688 -2.015625 0.203125 -2.015625 C 0.234375 -2.023438 0.257812 -2.03125 0.28125 -2.03125 C 0.3125 -2.03125 0.328125 -2.015625 0.328125 -1.984375 C 0.328125 -1.921875 0.328125 -1.859375 0.328125 -1.796875 C 0.328125 -1.742188 0.328125 -1.691406 0.328125 -1.640625 C 0.328125 -1.566406 0.320312 -1.488281 0.3125 -1.40625 C 0.3125 -1.332031 0.3125 -1.253906 0.3125 -1.171875 C 0.320312 -1.179688 0.328125 -1.191406 0.328125 -1.203125 C 0.335938 -1.210938 0.347656 -1.222656 0.359375 -1.234375 C 0.390625 -1.273438 0.421875 -1.3125 0.453125 -1.34375 C 0.492188 -1.382812 0.539062 -1.421875 0.59375 -1.453125 C 0.632812 -1.472656 0.675781 -1.488281 0.71875 -1.5 C 0.757812 -1.519531 0.804688 -1.523438 0.859375 -1.515625 C 0.921875 -1.503906 0.96875 -1.476562 1 -1.4375 C 1.03125 -1.394531 1.050781 -1.34375 1.0625 -1.28125 C 1.0625 -1.238281 1.054688 -1.195312 1.046875 -1.15625 C 1.035156 -1.113281 1.019531 -1.070312 1 -1.03125 C 0.945312 -0.9375 0.882812 -0.851562 0.8125 -0.78125 C 0.738281 -0.71875 0.65625 -0.664062 0.5625 -0.625 C 0.53125 -0.613281 0.5 -0.601562 0.46875 -0.59375 C 0.445312 -0.59375 0.421875 -0.59375 0.390625 -0.59375 C 0.429688 -0.539062 0.46875 -0.488281 0.5 -0.4375 C 0.53125 -0.382812 0.566406 -0.335938 0.609375 -0.296875 C 0.710938 -0.191406 0.816406 -0.1875 0.921875 -0.28125 C 0.941406 -0.300781 0.960938 -0.320312 0.984375 -0.34375 C 1.003906 -0.375 1.019531 -0.40625 1.03125 -0.4375 C 1.070312 -0.5 1.109375 -0.5625 1.140625 -0.625 C 1.171875 -0.695312 1.203125 -0.769531 1.234375 -0.84375 C 1.242188 -0.882812 1.257812 -0.90625 1.28125 -0.90625 C 1.300781 -0.914062 1.332031 -0.914062 1.375 -0.90625 C 1.394531 -0.894531 1.398438 -0.878906 1.390625 -0.859375 C 1.359375 -0.765625 1.320312 -0.671875 1.28125 -0.578125 C 1.238281 -0.484375 1.1875 -0.394531 1.125 -0.3125 C 1.0625 -0.226562 0.984375 -0.171875 0.890625 -0.140625 C 0.804688 -0.109375 0.71875 -0.101562 0.625 -0.125 C 0.53125 -0.144531 0.445312 -0.1875 0.375 -0.25 Z M 0.6875 -1.34375 C 0.601562 -1.269531 0.535156 -1.1875 0.484375 -1.09375 C 0.429688 -1 0.382812 -0.894531 0.34375 -0.78125 C 0.425781 -0.800781 0.5 -0.828125 0.5625 -0.859375 C 0.625 -0.890625 0.675781 -0.9375 0.71875 -1 C 0.75 -1.03125 0.773438 -1.0625 0.796875 -1.09375 C 0.828125 -1.132812 0.847656 -1.179688 0.859375 -1.234375 C 0.859375 -1.253906 0.859375 -1.269531 0.859375 -1.28125 C 0.859375 -1.300781 0.859375 -1.328125 0.859375 -1.359375 C 0.847656 -1.410156 0.816406 -1.421875 0.765625 -1.390625 C 0.734375 -1.378906 0.707031 -1.363281 0.6875 -1.34375 Z M 0.6875 -1.34375 "/></g></g></g><g fill="#af4604" fill-opacity="1"><g transform="translate(48.980763, 15.699026)"><g><path d="M 0.265625 -1.171875 C 0.265625 -1.179688 0.257812 -1.1875 0.25 -1.1875 C 0.25 -1.195312 0.242188 -1.207031 0.234375 -1.21875 C 0.222656 -1.164062 0.210938 -1.113281 0.203125 -1.0625 C 0.203125 -1.019531 0.195312 -0.976562 0.1875 -0.9375 C 0.15625 -0.769531 0.113281 -0.609375 0.0625 -0.453125 C 0.0078125 -0.296875 -0.046875 -0.140625 -0.109375 0.015625 C -0.117188 0.046875 -0.128906 0.0625 -0.140625 0.0625 C -0.148438 0.0703125 -0.171875 0.078125 -0.203125 0.078125 C -0.234375 0.0664062 -0.242188 0.046875 -0.234375 0.015625 C -0.222656 -0.00390625 -0.210938 -0.0234375 -0.203125 -0.046875 C -0.203125 -0.078125 -0.195312 -0.101562 -0.1875 -0.125 C -0.125 -0.3125 -0.0703125 -0.5 -0.03125 -0.6875 C 0.0078125 -0.882812 0.0507812 -1.082031 0.09375 -1.28125 C 0.101562 -1.3125 0.109375 -1.34375 0.109375 -1.375 C 0.117188 -1.40625 0.128906 -1.4375 0.140625 -1.46875 C 0.160156 -1.5625 0.210938 -1.582031 0.296875 -1.53125 C 0.347656 -1.488281 0.390625 -1.441406 0.421875 -1.390625 C 0.484375 -1.285156 0.539062 -1.175781 0.59375 -1.0625 C 0.65625 -0.957031 0.707031 -0.84375 0.75 -0.71875 C 0.757812 -0.695312 0.765625 -0.679688 0.765625 -0.671875 C 0.773438 -0.671875 0.796875 -0.675781 0.828125 -0.6875 C 0.867188 -0.707031 0.910156 -0.726562 0.953125 -0.75 C 0.992188 -0.769531 1.03125 -0.789062 1.0625 -0.8125 C 1.070312 -0.820312 1.082031 -0.828125 1.09375 -0.828125 C 1.101562 -0.835938 1.113281 -0.84375 1.125 -0.84375 C 1.15625 -0.851562 1.175781 -0.84375 1.1875 -0.8125 C 1.195312 -0.800781 1.195312 -0.789062 1.1875 -0.78125 C 1.175781 -0.78125 1.171875 -0.773438 1.171875 -0.765625 C 1.140625 -0.742188 1.109375 -0.722656 1.078125 -0.703125 C 1.046875 -0.679688 1.007812 -0.660156 0.96875 -0.640625 C 0.957031 -0.640625 0.941406 -0.632812 0.921875 -0.625 C 0.898438 -0.613281 0.878906 -0.601562 0.859375 -0.59375 C 0.828125 -0.582031 0.804688 -0.570312 0.796875 -0.5625 C 0.796875 -0.5625 0.800781 -0.539062 0.8125 -0.5 C 0.8125 -0.476562 0.8125 -0.457031 0.8125 -0.4375 C 0.820312 -0.414062 0.828125 -0.398438 0.828125 -0.390625 C 0.835938 -0.347656 0.835938 -0.304688 0.828125 -0.265625 C 0.828125 -0.222656 0.820312 -0.1875 0.8125 -0.15625 C 0.789062 -0.0703125 0.742188 -0.00390625 0.671875 0.046875 C 0.609375 0.0859375 0.539062 0.109375 0.46875 0.109375 C 0.40625 0.117188 0.335938 0.113281 0.265625 0.09375 C 0.203125 0.0703125 0.15625 0.0390625 0.125 0 C 0.09375 -0.0507812 0.078125 -0.101562 0.078125 -0.15625 C 0.078125 -0.21875 0.09375 -0.273438 0.125 -0.328125 C 0.164062 -0.378906 0.207031 -0.421875 0.25 -0.453125 C 0.289062 -0.484375 0.335938 -0.507812 0.390625 -0.53125 C 0.421875 -0.550781 0.441406 -0.5625 0.453125 -0.5625 C 0.472656 -0.570312 0.476562 -0.582031 0.46875 -0.59375 C 0.46875 -0.613281 0.460938 -0.640625 0.453125 -0.671875 C 0.429688 -0.753906 0.398438 -0.835938 0.359375 -0.921875 C 0.328125 -1.003906 0.296875 -1.085938 0.265625 -1.171875 Z M 0.53125 -0.078125 C 0.539062 -0.0976562 0.546875 -0.117188 0.546875 -0.140625 C 0.554688 -0.171875 0.5625 -0.195312 0.5625 -0.21875 C 0.5625 -0.257812 0.554688 -0.296875 0.546875 -0.328125 C 0.535156 -0.367188 0.53125 -0.40625 0.53125 -0.4375 C 0.519531 -0.46875 0.503906 -0.476562 0.484375 -0.46875 C 0.429688 -0.4375 0.382812 -0.40625 0.34375 -0.375 C 0.3125 -0.34375 0.285156 -0.300781 0.265625 -0.25 C 0.253906 -0.207031 0.253906 -0.164062 0.265625 -0.125 C 0.273438 -0.0820312 0.296875 -0.046875 0.328125 -0.015625 C 0.367188 0.015625 0.40625 0.0234375 0.4375 0.015625 C 0.476562 0.00390625 0.507812 -0.0234375 0.53125 -0.078125 Z M 0.53125 -0.078125 "/></g></g></g><g fill="#af4604" fill-opacity="1"><g transform="translate(50.039804, 15.699026)"><g/></g></g></svg>